<svg width="712" height="441" viewBox="0 0 712 441" fill="none" xmlns="http://www.w3.org/2000/svg">
<path d="M70.3719 249.967C70.6839 249.493 71.1822 249.175 71.7427 249.09L576.805 172.705C578.014 172.522 579.104 173.459 579.104 174.683L579.104 362.222C579.104 363.211 578.381 364.051 577.403 364.199L71.9691 440.64C71.2813 440.744 70.5889 440.483 70.1407 439.951L0.962728 357.87C0.391757 357.193 0.334556 356.22 0.822157 355.481L70.3719 249.967Z" fill="white"/>
<path d="M646.035 180.99C645.722 181.435 645.241 181.732 644.704 181.815L152.928 257.389C151.716 257.575 150.624 256.637 150.624 255.412L150.624 74.6945C150.624 73.7026 151.351 72.8605 152.332 72.7158L644.367 0.173621C645.093 0.0666285 645.819 0.365497 646.259 0.952375L710.679 86.862C711.199 87.5556 711.213 88.5054 710.714 89.214L646.035 180.99Z" fill="white"/>
<path d="M637.114 57.9398C641.426 53.2774 648.702 52.9935 653.365 57.306L674.704 77.0452L674.955 77.2767L675.192 77.5228C677.565 79.9954 680.033 83.9948 680.781 89.0189C681.607 94.5711 680.199 100.683 675.626 106.017C670.791 111.658 661.862 121.687 654.018 130.209C649.717 134.882 642.441 135.184 637.768 130.883C633.095 126.582 632.793 119.306 637.094 114.633C644.294 106.81 652.39 97.7276 657.19 92.1742L637.747 74.1908C633.085 69.8781 632.801 62.6023 637.114 57.9398Z" fill="#FF2905"/>
<path d="M79.8136 388.803C75.5009 393.465 68.2251 393.749 63.5626 389.436L42.2228 369.697L41.9718 369.466L41.7355 369.22C39.3618 366.747 36.8942 362.748 36.1466 357.724C35.3204 352.171 36.7287 346.06 41.3009 340.726C46.1364 335.084 55.0653 325.056 62.9093 316.533C67.2104 311.86 74.4861 311.558 79.1593 315.859C83.8324 320.16 84.1342 327.436 79.8331 332.109C72.6329 339.932 64.5371 349.015 59.7374 354.568L79.1798 372.552C83.8422 376.864 84.1261 384.14 79.8136 388.803Z" fill="#3E85FC"/>
<path d="M176.427 101.996V232.824C176.427 237.657 180.177 237.615 182.052 236.991C192.607 235.602 215.467 232.407 222.467 230.741C229.467 229.074 230.522 223.658 230.175 221.158V215.741C247.327 213.311 283.423 208.075 290.589 206.575C297.756 205.075 298.575 199.978 298.089 197.617V156.577C298.089 150.911 293.089 150.05 290.589 150.327L230.175 159.494V148.869C247.744 146.439 284.423 141.286 290.589 140.119C296.756 138.953 298.158 134.078 298.089 131.786V85.3301C298.089 77.497 293.089 76.9277 290.589 77.6221C257.396 82.5524 189.635 92.6214 184.135 93.4547C178.636 94.288 176.705 99.4962 176.427 101.996Z" fill="#FF2905"/>
<path d="M306.031 81.8246V210.291V211.004C306.031 217.391 310.688 217.753 313.017 217.135C339.11 213.285 392.891 205.3 399.279 204.16C405.667 203.019 406.313 197.886 405.838 195.462V146.272C405.838 138.743 400.8 138.192 398.281 138.857L361.638 144.418V75.1232C361.638 68.0511 356.505 67.3287 353.938 67.8515C341.771 69.4674 316.239 72.9844 311.449 74.1251C306.658 75.2657 305.841 79.7334 306.031 81.8246Z" fill="#FF2905"/>
<path d="M349.785 238.43V367.125C349.785 372.961 354.219 373.442 356.436 372.953C367.699 371.265 391.801 367.658 398.11 366.737C404.418 365.816 405.995 361.058 405.995 358.794V229.457C405.995 223.425 400.163 223.029 397.246 223.586C385.83 225.274 361.64 228.893 356.206 229.86C350.773 230.827 349.661 235.976 349.785 238.43Z" fill="#3E85FC"/>
<path d="M414.633 66.229V194.604V195.229C414.633 201.229 419.466 201.229 421.883 200.479C432.883 198.812 456.683 195.154 463.883 193.854C471.083 192.554 472.049 187.229 471.633 184.729V58.479C471.633 50.679 467.133 50.0623 464.883 50.729C452.966 52.5623 427.583 56.529 421.383 57.729C415.183 58.929 414.299 63.8957 414.633 66.229Z" fill="#FF2905"/>
<path d="M557.403 36.5405C562.895 35.6639 571.916 35.3447 581.191 37.2241C590.467 39.1041 600.056 43.1965 606.593 51.1948C614.74 61.1629 617.696 75.1387 618.271 87.7114C618.846 100.289 617.044 111.566 615.584 116.217C614.161 120.754 612.405 131.671 602.095 142.587C591.781 153.509 572.961 164.391 537.498 169.126L537.465 169.13H537.111V176.932L537.105 177.17C537.048 178.396 536.542 180.111 535.213 181.641C533.786 183.285 531.437 184.684 527.763 185.061C520.661 185.79 497.686 189.542 487.041 191.334C485.821 191.708 483.973 191.919 482.391 191.272C481.58 190.94 480.839 190.381 480.306 189.513C479.775 188.649 479.471 187.51 479.471 186.048V55.6675C479.318 54.4206 479.552 52.5395 480.721 50.8091C481.915 49.0416 484.052 47.4773 487.621 46.8823C494.534 45.7303 537.027 39.5069 557.403 36.5405ZM556.792 88.6226C554.338 87.1816 551.491 87.1583 549.606 87.5708V87.5698L535.658 89.8198L535.239 89.8872V119.297L535.8 119.228C538.629 118.878 545.598 117.906 550.836 116.822C554.189 116.128 557.025 114.628 558.936 111.654C560.833 108.7 561.773 104.362 561.508 98.0903C561.292 92.9759 559.294 90.0916 556.792 88.6226Z" fill="#FF2905"/>
<path d="M492.545 208.868C498.038 207.991 507.059 207.672 516.334 209.551C525.61 211.431 535.198 215.524 541.736 223.522C549.883 233.49 552.839 247.466 553.414 260.039C553.989 272.616 552.186 283.893 550.727 288.544C549.304 293.081 547.547 303.998 537.238 314.915C526.924 325.836 508.104 336.718 472.641 341.453L472.608 341.458H472.253V349.259L472.248 349.498C472.191 350.723 471.684 352.438 470.356 353.968C468.929 355.612 466.58 357.011 462.906 357.388C455.804 358.117 432.829 361.869 422.184 363.662C420.964 364.035 419.116 364.246 417.534 363.599C416.722 363.267 415.982 362.708 415.449 361.84C414.918 360.976 414.614 359.837 414.614 358.375V227.995C414.461 226.748 414.695 224.867 415.864 223.136C417.058 221.369 419.195 219.804 422.764 219.209C429.677 218.057 472.17 211.834 492.545 208.868ZM491.935 260.95C489.481 259.509 486.634 259.485 484.749 259.898V259.897L470.801 262.147L470.381 262.214V291.625L470.943 291.555C473.772 291.205 480.741 290.233 485.979 289.149C489.332 288.455 492.168 286.956 494.079 283.981C495.976 281.027 496.915 276.689 496.651 270.417C496.435 265.303 494.437 262.419 491.935 260.95Z" fill="#3E85FC"/>
<path d="M121.248 320.244V402.941C121.248 407.279 125.513 407.733 127.646 407.418C137.216 406.004 158.358 402.903 166.368 401.811C174.378 400.719 176.451 395.941 176.486 393.689V312.012C177.874 311.791 182.311 311.144 188.949 310.332C195.587 309.52 196.966 304.672 196.826 302.35V262.719C196.826 255.353 192.485 254.515 190.314 255.017C166.608 258.488 117.318 265.747 109.815 267.021C102.311 268.294 100.349 273.346 100.306 275.712V315.898C100.306 322.507 105.326 323.012 107.836 322.438L121.248 320.244Z" fill="#3E85FC"/>
<path d="M284.794 240.659C290.516 239.798 299.828 239.71 309.228 242.232C318.634 244.756 328.175 249.908 334.262 259.564C341.833 271.573 344.055 286.035 343.714 298.893C343.374 311.747 340.472 323.068 337.725 328.837C333.581 337.541 330.085 343.112 328.65 345.103L339.697 364.703L339.702 364.711C340.547 366.276 341.305 368.756 340.736 371.076C340.448 372.249 339.821 373.372 338.712 374.295C337.607 375.213 336.049 375.911 333.926 376.284C325.686 377.729 302.563 381.46 292.012 383.148C290.442 383.6 287.968 383.457 285.453 381.723C282.953 380 280.442 376.729 278.688 370.977C278.647 370.976 278.599 370.976 278.545 370.976C278.232 370.979 277.774 371.007 277.197 371.057C276.045 371.156 274.459 371.338 272.697 371.561C269.348 371.984 265.381 372.552 262.593 372.969V380.835C262.687 381.949 262.38 383.623 261.205 385.172C260.011 386.747 257.948 388.159 254.59 388.753C248.077 389.907 223.557 393.571 212.113 395.259C210.942 395.449 209.169 395.415 207.665 394.656C206.904 394.272 206.207 393.699 205.703 392.876C205.198 392.052 204.904 391.005 204.904 389.701V259.813C204.95 258.485 205.427 256.469 206.702 254.664C207.988 252.843 210.081 251.248 213.315 250.795C219.492 249.931 263.541 243.677 284.794 240.659ZM281.811 292.931C279.286 291.413 276.339 291.258 274.39 291.575L260.871 293.754L260.451 293.822V323.303L261.008 323.238C262.879 323.019 268.201 322.35 274.544 321.419C278.606 320.822 281.767 319.167 283.837 316.048C285.891 312.952 286.82 308.486 286.6 302.371C286.42 297.367 284.37 294.471 281.811 292.931Z" fill="#3E85FC"/>
</svg>
