<svg width="171" height="117" viewBox="0 0 171 117" fill="none" xmlns="http://www.w3.org/2000/svg">
<g filter="url(#filter0_d_977_69)">
<rect x="9.90039" y="6.90002" width="150.607" height="97.1257" rx="10" fill="white"/>
</g>
<rect x="22.4414" y="40.8967" width="39.3105" height="22.9879" rx="3" fill="#D3D7DF"/>
<rect x="65.5488" y="40.8967" width="39.3105" height="22.9879" rx="3" fill="#D3D7DF"/>
<rect x="108.658" y="40.8967" width="39.3105" height="22.9879" rx="3" fill="#D3D7DF"/>
<path d="M57.9437 25.892C57.3585 25.892 56.8357 25.7912 56.3755 25.5895C55.9181 25.3878 55.5559 25.1079 55.2889 24.75C55.0247 24.3892 54.8826 23.9716 54.8627 23.4971H56.2008C56.2178 23.7557 56.3045 23.9801 56.4607 24.1704C56.6198 24.3579 56.8272 24.5028 57.0829 24.6051C57.3386 24.7074 57.6227 24.7585 57.9352 24.7585C58.2789 24.7585 58.5829 24.6988 58.8471 24.5795C59.1142 24.4602 59.323 24.294 59.4735 24.0809C59.6241 23.865 59.6994 23.6165 59.6994 23.3352C59.6994 23.0426 59.6241 22.7855 59.4735 22.5639C59.3258 22.3395 59.1085 22.1633 58.8215 22.0355C58.5374 21.9076 58.1937 21.8437 57.7903 21.8437H57.0531V20.7699H57.7903C58.1142 20.7699 58.3982 20.7116 58.6426 20.5951C58.8897 20.4787 59.0829 20.3167 59.2221 20.1094C59.3613 19.8991 59.4309 19.6534 59.4309 19.3721C59.4309 19.1023 59.3698 18.8679 59.2477 18.669C59.1284 18.4673 58.9579 18.3096 58.7363 18.196C58.5176 18.0824 58.259 18.0255 57.9607 18.0255C57.6767 18.0255 57.411 18.0781 57.1639 18.1832C56.9196 18.2855 56.7207 18.4332 56.5673 18.6264C56.4139 18.8167 56.3315 19.0454 56.3201 19.3125H55.046C55.0602 18.8409 55.1994 18.4261 55.4636 18.0682C55.7306 17.7102 56.0829 17.4304 56.5204 17.2287C56.9579 17.027 57.4437 16.9261 57.9778 16.9261C58.5374 16.9261 59.0204 17.0355 59.4267 17.2542C59.8357 17.4701 60.1511 17.7585 60.3727 18.1193C60.5971 18.4801 60.7079 18.875 60.7051 19.304C60.7079 19.7926 60.5715 20.2074 60.296 20.5483C60.0232 20.8892 59.6596 21.1179 59.2051 21.2344V21.3025C59.7846 21.3906 60.2335 21.6207 60.5517 21.9929C60.8727 22.365 61.0318 22.8267 61.0289 23.3778C61.0318 23.8579 60.8982 24.2883 60.6284 24.669C60.3613 25.0497 59.9963 25.3494 59.5332 25.5682C59.0701 25.7841 58.5403 25.892 57.9437 25.892ZM68.5896 25.9048C67.9561 25.9048 67.4107 25.7613 66.9533 25.4744C66.4987 25.1846 66.1493 24.7855 65.905 24.277C65.6607 23.7684 65.5385 23.1861 65.5385 22.5298C65.5385 21.865 65.6635 21.2784 65.9135 20.7699C66.1635 20.2585 66.5158 19.8594 66.9703 19.5724C67.4249 19.2855 67.9604 19.142 68.5769 19.142C69.074 19.142 69.5172 19.2344 69.9064 19.419C70.2956 19.6008 70.6095 19.8565 70.8482 20.1861C71.0896 20.5156 71.2331 20.9005 71.2786 21.3409H70.0385C69.9703 21.0341 69.8141 20.7699 69.5698 20.5483C69.3283 20.3267 69.0044 20.2159 68.5982 20.2159C68.2431 20.2159 67.932 20.3096 67.6649 20.4971C67.4007 20.6818 67.1948 20.946 67.047 21.2898C66.8993 21.6307 66.8254 22.0341 66.8254 22.5C66.8254 22.9773 66.8979 23.3892 67.0428 23.7358C67.1877 24.0824 67.3922 24.3508 67.6564 24.5412C67.9235 24.7315 68.2374 24.8267 68.5982 24.8267C68.8396 24.8267 69.0584 24.7826 69.2544 24.6946C69.4533 24.6037 69.6195 24.4744 69.753 24.3068C69.8894 24.1392 69.9845 23.9375 70.0385 23.7017H71.2786C71.2331 24.125 71.0953 24.5028 70.8652 24.8352C70.6351 25.1676 70.3269 25.429 69.9405 25.6193C69.557 25.8096 69.1067 25.9048 68.5896 25.9048ZM75.3982 25.9048C74.7846 25.9048 74.2491 25.7642 73.7917 25.4829C73.3343 25.2017 72.9792 24.8082 72.7264 24.3025C72.4735 23.7969 72.3471 23.2059 72.3471 22.5298C72.3471 21.8508 72.4735 21.2571 72.7264 20.7486C72.9792 20.24 73.3343 19.8451 73.7917 19.5639C74.2491 19.2826 74.7846 19.142 75.3982 19.142C76.0119 19.142 76.5474 19.2826 77.0048 19.5639C77.4622 19.8451 77.8173 20.24 78.0701 20.7486C78.323 21.2571 78.4494 21.8508 78.4494 22.5298C78.4494 23.2059 78.323 23.7969 78.0701 24.3025C77.8173 24.8082 77.4622 25.2017 77.0048 25.4829C76.5474 25.7642 76.0119 25.9048 75.3982 25.9048ZM75.4025 24.8352C75.8002 24.8352 76.1298 24.7301 76.3911 24.5199C76.6525 24.3096 76.8457 24.0298 76.9707 23.6804C77.0985 23.3309 77.1624 22.946 77.1624 22.5255C77.1624 22.1079 77.0985 21.7244 76.9707 21.375C76.8457 21.0227 76.6525 20.74 76.3911 20.527C76.1298 20.3139 75.8002 20.2074 75.4025 20.2074C75.0019 20.2074 74.6696 20.3139 74.4053 20.527C74.144 20.74 73.9494 21.0227 73.8215 21.375C73.6965 21.7244 73.634 22.1079 73.634 22.5255C73.634 22.946 73.6965 23.3309 73.8215 23.6804C73.9494 24.0298 74.144 24.3096 74.4053 24.5199C74.6696 24.7301 75.0019 24.8352 75.4025 24.8352ZM81.1458 17.0454V25.7727H79.8716V17.0454H81.1458ZM87.0062 23.0582V19.2273H88.2846V25.7727H87.0318V24.6392H86.9636C86.813 24.9886 86.5715 25.2798 86.2392 25.5128C85.9096 25.7429 85.4991 25.8579 85.0076 25.8579C84.5872 25.8579 84.215 25.7656 83.8911 25.5809C83.5701 25.3934 83.3173 25.1165 83.1326 24.75C82.9508 24.3835 82.8599 23.9304 82.8599 23.3906V19.2273H84.134V23.2372C84.134 23.6832 84.2576 24.0383 84.5048 24.3025C84.7519 24.5667 85.073 24.6988 85.4678 24.6988C85.7065 24.6988 85.9437 24.6392 86.1795 24.5199C86.4181 24.4005 86.6156 24.2201 86.7718 23.9787C86.9309 23.7372 87.009 23.4304 87.0062 23.0582ZM89.9966 25.7727V19.2273H91.2196V20.2926H91.3006C91.437 19.9318 91.66 19.6505 91.9696 19.4488C92.2793 19.2443 92.65 19.142 93.0818 19.142C93.5193 19.142 93.8858 19.2443 94.1813 19.4488C94.4796 19.6534 94.6997 19.9346 94.8418 20.2926H94.91C95.0662 19.9432 95.3148 19.6648 95.6557 19.4574C95.9966 19.2471 96.4029 19.142 96.8745 19.142C97.4682 19.142 97.9526 19.3281 98.3276 19.7003C98.7054 20.0724 98.8943 20.6335 98.8943 21.3835V25.7727H97.6202V21.5028C97.6202 21.0596 97.4995 20.7386 97.258 20.5398C97.0165 20.3409 96.7281 20.2415 96.3929 20.2415C95.9781 20.2415 95.6557 20.3693 95.4256 20.625C95.1955 20.8778 95.0804 21.2031 95.0804 21.6008V25.7727H93.8105V21.4219C93.8105 21.0667 93.6997 20.7812 93.4781 20.5653C93.2566 20.3494 92.9682 20.2415 92.6131 20.2415C92.3716 20.2415 92.1486 20.3054 91.9441 20.4332C91.7423 20.5582 91.579 20.7329 91.454 20.9574C91.3318 21.1818 91.2708 21.4417 91.2708 21.7372V25.7727H89.9966ZM101.876 21.8863V25.7727H100.602V19.2273H101.825V20.2926H101.906C102.057 19.946 102.292 19.6676 102.613 19.4574C102.937 19.2471 103.345 19.142 103.836 19.142C104.282 19.142 104.673 19.2358 105.008 19.4233C105.344 19.6079 105.603 19.8835 105.788 20.25C105.973 20.6165 106.065 21.0696 106.065 21.6094V25.7727H104.791V21.7628C104.791 21.2883 104.667 20.9176 104.42 20.6505C104.173 20.3807 103.834 20.2457 103.402 20.2457C103.106 20.2457 102.844 20.3096 102.613 20.4375C102.386 20.5653 102.206 20.7528 102.072 21C101.942 21.2443 101.876 21.5398 101.876 21.8863ZM112.679 20.8253L111.524 21.0298C111.476 20.8821 111.399 20.7415 111.294 20.6079C111.192 20.4744 111.052 20.365 110.876 20.2798C110.7 20.1946 110.48 20.152 110.216 20.152C109.855 20.152 109.554 20.2329 109.312 20.3949C109.071 20.554 108.95 20.7599 108.95 21.0128C108.95 21.2315 109.031 21.4076 109.193 21.5412C109.355 21.6747 109.616 21.7841 109.977 21.8693L111.017 22.1079C111.619 22.2471 112.068 22.4616 112.363 22.7514C112.659 23.0412 112.807 23.4176 112.807 23.8807C112.807 24.2727 112.693 24.6221 112.466 24.929C112.241 25.2329 111.927 25.4716 111.524 25.6449C111.123 25.8182 110.659 25.9048 110.13 25.9048C109.398 25.9048 108.8 25.7486 108.336 25.4361C107.873 25.1207 107.589 24.6733 107.484 24.0937L108.716 23.9062C108.792 24.2273 108.95 24.4701 109.189 24.6349C109.427 24.7969 109.738 24.8778 110.122 24.8778C110.54 24.8778 110.873 24.7912 111.123 24.6179C111.373 24.4417 111.498 24.2273 111.498 23.9744C111.498 23.7699 111.422 23.598 111.268 23.4588C111.118 23.3196 110.886 23.2145 110.574 23.1434L109.466 22.9005C108.855 22.7613 108.403 22.5398 108.111 22.2358C107.821 21.9318 107.676 21.5469 107.676 21.0809C107.676 20.6946 107.784 20.3565 108 20.0667C108.216 19.777 108.514 19.5511 108.895 19.3892C109.275 19.2244 109.711 19.142 110.203 19.142C110.91 19.142 111.467 19.2954 111.873 19.6023C112.28 19.9062 112.548 20.3139 112.679 20.8253Z" fill="#040404"/>
<rect x="26.9922" y="70.426" width="30.208" height="2.28907" fill="#D3D7DF"/>
<rect x="26.9922" y="75.3785" width="30.208" height="2.28907" fill="#D3D7DF"/>
<rect x="26.9922" y="80.3313" width="30.208" height="2.28907" fill="#D3D7DF"/>
<rect x="26.9922" y="85.2842" width="30.208" height="2.28907" fill="#D3D7DF"/>
<rect x="70.0996" y="70.426" width="30.208" height="2.28907" fill="#D3D7DF"/>
<rect x="70.0996" y="75.3785" width="30.208" height="2.28907" fill="#D3D7DF"/>
<rect x="70.0996" y="80.3313" width="30.208" height="2.28907" fill="#D3D7DF"/>
<rect x="70.0996" y="85.2842" width="30.208" height="2.28907" fill="#D3D7DF"/>
<rect x="113.209" y="70.426" width="30.208" height="2.28907" fill="#D3D7DF"/>
<rect x="113.209" y="75.3785" width="30.208" height="2.28907" fill="#D3D7DF"/>
<rect x="113.209" y="80.3313" width="30.208" height="2.28907" fill="#D3D7DF"/>
<rect x="113.209" y="85.2842" width="30.208" height="2.28907" fill="#D3D7DF"/>
<defs>
<filter id="filter0_d_977_69" x="0.00039053" y="2.43187e-05" width="170.407" height="116.926" filterUnits="userSpaceOnUse" color-interpolation-filters="sRGB">
<feFlood flood-opacity="0" result="BackgroundImageFix"/>
<feColorMatrix in="SourceAlpha" type="matrix" values="0 0 0 0 0 0 0 0 0 0 0 0 0 0 0 0 0 0 127 0" result="hardAlpha"/>
<feMorphology radius="2" operator="dilate" in="SourceAlpha" result="effect1_dropShadow_977_69"/>
<feOffset dy="3"/>
<feGaussianBlur stdDeviation="3.95"/>
<feComposite in2="hardAlpha" operator="out"/>
<feColorMatrix type="matrix" values="0 0 0 0 0 0 0 0 0 0 0 0 0 0 0 0 0 0 0.1 0"/>
<feBlend mode="normal" in2="BackgroundImageFix" result="effect1_dropShadow_977_69"/>
<feBlend mode="normal" in="SourceGraphic" in2="effect1_dropShadow_977_69" result="shape"/>
</filter>
</defs>
</svg>
