<svg width="171" height="117" viewBox="0 0 171 117" fill="none" xmlns="http://www.w3.org/2000/svg">
<g filter="url(#filter0_d_977_279)">
<rect x="9.90039" y="6.90002" width="150.607" height="97.1257" rx="10" fill="white"/>
</g>
<rect x="27.6484" y="58.2173" width="117.257" height="3.50377" fill="#D3D7DF"/>
<path d="M65.2621 25.7727H62.4368V17.0454H65.3515C66.2067 17.0454 66.941 17.2201 67.5547 17.5696C68.1683 17.9162 68.6385 18.4148 68.9652 19.0653C69.2947 19.713 69.4595 20.49 69.4595 21.3963C69.4595 22.3054 69.2933 23.0866 68.9609 23.74C68.6314 24.3934 68.1541 24.8963 67.5291 25.2486C66.9041 25.598 66.1484 25.7727 65.2621 25.7727ZM63.7535 24.6221H65.1896C65.8544 24.6221 66.4069 24.4971 66.8473 24.2471C67.2876 23.9943 67.6172 23.6292 67.8359 23.152C68.0547 22.6719 68.164 22.0866 68.164 21.3963C68.164 20.7116 68.0547 20.1307 67.8359 19.6534C67.62 19.1761 67.2976 18.8139 66.8686 18.5667C66.4396 18.3196 65.9069 18.196 65.2706 18.196H63.7535V24.6221ZM73.8157 25.9048C73.1708 25.9048 72.6154 25.767 72.1495 25.4915C71.6864 25.213 71.3285 24.8224 71.0756 24.3196C70.8256 23.8139 70.7006 23.2216 70.7006 22.5426C70.7006 21.8721 70.8256 21.2812 71.0756 20.7699C71.3285 20.2585 71.6807 19.8594 72.1324 19.5724C72.587 19.2855 73.1182 19.142 73.7262 19.142C74.0955 19.142 74.4535 19.2031 74.8001 19.3253C75.1466 19.4474 75.4577 19.6392 75.7333 19.9005C76.0089 20.1619 76.2262 20.5014 76.3853 20.919C76.5444 21.3338 76.6239 21.838 76.6239 22.4318V22.8835H71.4208V21.929H75.3753C75.3753 21.5937 75.3072 21.2969 75.1708 21.0383C75.0344 20.777 74.8427 20.571 74.5955 20.4204C74.3512 20.2699 74.0643 20.1946 73.7347 20.1946C73.3768 20.1946 73.0643 20.2826 72.7972 20.4588C72.533 20.6321 72.3285 20.8594 72.1836 21.1406C72.0415 21.419 71.9705 21.7216 71.9705 22.0483V22.794C71.9705 23.2315 72.0472 23.6037 72.2006 23.9105C72.3569 24.2173 72.5742 24.4517 72.8526 24.6136C73.131 24.7727 73.4563 24.8523 73.8285 24.8523C74.0699 24.8523 74.2901 24.8182 74.489 24.75C74.6878 24.679 74.8597 24.5738 75.0046 24.4346C75.1495 24.2954 75.2603 24.1236 75.337 23.919L76.543 24.1363C76.4464 24.4915 76.2731 24.8025 76.0231 25.0696C75.7759 25.3338 75.4648 25.5398 75.0898 25.6875C74.7177 25.8324 74.293 25.9048 73.8157 25.9048ZM83.4496 19.2273L81.076 25.7727H79.7123L77.3345 19.2273H78.7024L80.3601 24.2642H80.4283L82.0817 19.2273H83.4496ZM84.647 25.7727V19.2273H85.9211V25.7727H84.647ZM85.2905 18.2173C85.0689 18.2173 84.8785 18.1434 84.7194 17.9957C84.5632 17.8451 84.4851 17.6662 84.4851 17.4588C84.4851 17.2486 84.5632 17.0696 84.7194 16.9219C84.8785 16.7713 85.0689 16.696 85.2905 16.696C85.5121 16.696 85.701 16.7713 85.8572 16.9219C86.0163 17.0696 86.0959 17.2486 86.0959 17.4588C86.0959 17.6662 86.0163 17.8451 85.8572 17.9957C85.701 18.1434 85.5121 18.2173 85.2905 18.2173ZM90.0856 25.9005C89.5572 25.9005 89.0856 25.7656 88.6708 25.4957C88.2589 25.223 87.935 24.8352 87.6992 24.3324C87.4662 23.8267 87.3498 23.2201 87.3498 22.5128C87.3498 21.8054 87.4677 21.2003 87.7035 20.6974C87.9421 20.1946 88.2688 19.8096 88.6836 19.5426C89.0983 19.2755 89.5685 19.142 90.0941 19.142C90.5003 19.142 90.827 19.2102 91.0742 19.3466C91.3242 19.4801 91.5174 19.6363 91.6537 19.8153C91.793 19.9943 91.9009 20.152 91.9776 20.2883H92.0543V17.0454H93.3285V25.7727H92.0841V24.7542H91.9776C91.9009 24.8934 91.7901 25.0525 91.6452 25.2315C91.5032 25.4105 91.3072 25.5667 91.0572 25.7003C90.8072 25.8338 90.4833 25.9005 90.0856 25.9005ZM90.3668 24.8139C90.7333 24.8139 91.043 24.7173 91.2958 24.5241C91.5515 24.3281 91.7447 24.0568 91.8753 23.7102C92.0089 23.3636 92.0756 22.9602 92.0756 22.5C92.0756 22.0454 92.0103 21.6477 91.8796 21.3068C91.7489 20.9659 91.5572 20.7003 91.3043 20.5099C91.0515 20.3196 90.739 20.2244 90.3668 20.2244C89.9833 20.2244 89.6637 20.3238 89.408 20.5227C89.1523 20.7216 88.9591 20.9929 88.8285 21.3366C88.7006 21.6804 88.6367 22.0682 88.6367 22.5C88.6367 22.9375 88.702 23.3309 88.8327 23.6804C88.9634 24.0298 89.1566 24.3068 89.4123 24.5113C89.6708 24.713 89.989 24.8139 90.3668 24.8139ZM97.968 25.9048C97.3231 25.9048 96.7677 25.767 96.3018 25.4915C95.8388 25.213 95.4808 24.8224 95.228 24.3196C94.978 23.8139 94.853 23.2216 94.853 22.5426C94.853 21.8721 94.978 21.2812 95.228 20.7699C95.4808 20.2585 95.8331 19.8594 96.2848 19.5724C96.7393 19.2855 97.2706 19.142 97.8785 19.142C98.2479 19.142 98.6058 19.2031 98.9524 19.3253C99.299 19.4474 99.6101 19.6392 99.8856 19.9005C100.161 20.1619 100.379 20.5014 100.538 20.919C100.697 21.3338 100.776 21.838 100.776 22.4318V22.8835H95.5731V21.929H99.5277C99.5277 21.5937 99.4595 21.2969 99.3231 21.0383C99.1868 20.777 98.995 20.571 98.7479 20.4204C98.5035 20.2699 98.2166 20.1946 97.8871 20.1946C97.5291 20.1946 97.2166 20.2826 96.9496 20.4588C96.6854 20.6321 96.4808 20.8594 96.3359 21.1406C96.1939 21.419 96.1229 21.7216 96.1229 22.0483V22.794C96.1229 23.2315 96.1996 23.6037 96.353 23.9105C96.5092 24.2173 96.7265 24.4517 97.005 24.6136C97.2834 24.7727 97.6086 24.8523 97.9808 24.8523C98.2223 24.8523 98.4425 24.8182 98.6413 24.75C98.8402 24.679 99.0121 24.5738 99.1569 24.4346C99.3018 24.2954 99.4126 24.1236 99.4893 23.919L100.695 24.1363C100.599 24.4915 100.425 24.8025 100.175 25.0696C99.9283 25.3338 99.6172 25.5398 99.2422 25.6875C98.87 25.8324 98.4453 25.9048 97.968 25.9048ZM102.19 25.7727V19.2273H103.422V20.267H103.49C103.609 19.9148 103.819 19.6378 104.12 19.4361C104.424 19.2315 104.768 19.1292 105.152 19.1292C105.231 19.1292 105.325 19.1321 105.433 19.1378C105.544 19.1434 105.63 19.1505 105.693 19.1591V20.3778C105.642 20.3636 105.551 20.348 105.42 20.3309C105.289 20.3111 105.159 20.3011 105.028 20.3011C104.727 20.3011 104.458 20.365 104.223 20.4929C103.99 20.6179 103.805 20.7926 103.669 21.017C103.532 21.2386 103.464 21.4915 103.464 21.7755V25.7727H102.19Z" fill="#040404"/>
<defs>
<filter id="filter0_d_977_279" x="0.00039053" y="2.43187e-05" width="170.407" height="116.926" filterUnits="userSpaceOnUse" color-interpolation-filters="sRGB">
<feFlood flood-opacity="0" result="BackgroundImageFix"/>
<feColorMatrix in="SourceAlpha" type="matrix" values="0 0 0 0 0 0 0 0 0 0 0 0 0 0 0 0 0 0 127 0" result="hardAlpha"/>
<feMorphology radius="2" operator="dilate" in="SourceAlpha" result="effect1_dropShadow_977_279"/>
<feOffset dy="3"/>
<feGaussianBlur stdDeviation="3.95"/>
<feComposite in2="hardAlpha" operator="out"/>
<feColorMatrix type="matrix" values="0 0 0 0 0 0 0 0 0 0 0 0 0 0 0 0 0 0 0.1 0"/>
<feBlend mode="normal" in2="BackgroundImageFix" result="effect1_dropShadow_977_279"/>
<feBlend mode="normal" in="SourceGraphic" in2="effect1_dropShadow_977_279" result="shape"/>
</filter>
</defs>
</svg>
