<svg width="171" height="117" viewBox="0 0 171 117" fill="none" xmlns="http://www.w3.org/2000/svg">
<g filter="url(#filter0_d_977_7)">
<rect x="9.90039" y="6.8999" width="150.607" height="97.1257" rx="10" fill="white"/>
</g>
<rect x="21.4346" y="42.0986" width="59.9445" height="35.5997" fill="#D3D7DF"/>
<rect x="87.874" y="66.2881" width="17.4658" height="11.4103" fill="#D3D7DF"/>
<rect x="108.71" y="66.2881" width="17.4658" height="11.4103" fill="#D3D7DF"/>
<rect x="129.546" y="66.2881" width="17.4658" height="11.4103" fill="#D3D7DF"/>
<rect x="21.4346" y="83.0845" width="59.5605" height="2.46344" fill="#D3D7DF"/>
<rect x="21.4346" y="88.4141" width="43.4863" height="2.46344" fill="#D3D7DF"/>
<rect x="21.4346" y="93.7441" width="49.5889" height="2.46344" fill="#D3D7DF"/>
<rect x="88.5508" y="42.0986" width="39.2803" height="4.21716" fill="#D3D7DF"/>
<rect x="88.5508" y="50.6392" width="12.0889" height="2.46344" fill="#D3D7DF"/>
<rect x="88.5508" y="54.231" width="12.0889" height="2.46344" fill="#D3D7DF"/>
<path d="M59.9172 25.7725V17.0452H61.234V24.6389H65.1885V25.7725H59.9172ZM69.3455 25.9046C68.7319 25.9046 68.1964 25.7639 67.739 25.4827C67.2816 25.2014 66.9265 24.808 66.6736 24.3023C66.4208 23.7966 66.2944 23.2057 66.2944 22.5296C66.2944 21.8506 66.4208 21.2568 66.6736 20.7483C66.9265 20.2398 67.2816 19.8449 67.739 19.5637C68.1964 19.2824 68.7319 19.1418 69.3455 19.1418C69.9591 19.1418 70.4947 19.2824 70.952 19.5637C71.4094 19.8449 71.7645 20.2398 72.0174 20.7483C72.2702 21.2568 72.3966 21.8506 72.3966 22.5296C72.3966 23.2057 72.2702 23.7966 72.0174 24.3023C71.7645 24.808 71.4094 25.2014 70.952 25.4827C70.4947 25.7639 69.9591 25.9046 69.3455 25.9046ZM69.3498 24.835C69.7475 24.835 70.077 24.7298 70.3384 24.5196C70.5998 24.3094 70.793 24.0296 70.918 23.6801C71.0458 23.3307 71.1097 22.9458 71.1097 22.5253C71.1097 22.1077 71.0458 21.7242 70.918 21.3747C70.793 21.0225 70.5998 20.7398 70.3384 20.5267C70.077 20.3137 69.7475 20.2071 69.3498 20.2071C68.9492 20.2071 68.6168 20.3137 68.3526 20.5267C68.0912 20.7398 67.8966 21.0225 67.7688 21.3747C67.6438 21.7242 67.5813 22.1077 67.5813 22.5253C67.5813 22.9458 67.6438 23.3307 67.7688 23.6801C67.8966 24.0296 68.0912 24.3094 68.3526 24.5196C68.6168 24.7298 68.9492 24.835 69.3498 24.835ZM76.576 25.9046C75.9425 25.9046 75.397 25.7611 74.9396 25.4742C74.4851 25.1844 74.1356 24.7852 73.8913 24.2767C73.647 23.7682 73.5248 23.1858 73.5248 22.5296C73.5248 21.8648 73.6498 21.2781 73.8998 20.7696C74.1498 20.2583 74.5021 19.8591 74.9567 19.5722C75.4112 19.2852 75.9467 19.1418 76.5632 19.1418C77.0604 19.1418 77.5035 19.2341 77.8927 19.4188C78.2819 19.6006 78.5959 19.8563 78.8345 20.1858C79.076 20.5154 79.2194 20.9003 79.2649 21.3406H78.0248C77.9567 21.0338 77.8004 20.7696 77.5561 20.548C77.3146 20.3264 76.9908 20.2156 76.5845 20.2156C76.2294 20.2156 75.9183 20.3094 75.6513 20.4969C75.3871 20.6816 75.1811 20.9458 75.0334 21.2895C74.8856 21.6304 74.8118 22.0338 74.8118 22.4997C74.8118 22.977 74.8842 23.3889 75.0291 23.7355C75.174 24.0821 75.3785 24.3506 75.6427 24.5409C75.9098 24.7313 76.2237 24.8264 76.5845 24.8264C76.826 24.8264 77.0447 24.7824 77.2408 24.6943C77.4396 24.6034 77.6058 24.4742 77.7393 24.3066C77.8757 24.1389 77.9709 23.9372 78.0248 23.7014H79.2649C79.2194 24.1247 79.0817 24.5026 78.8515 24.835C78.6214 25.1673 78.3132 25.4287 77.9268 25.6191C77.5433 25.8094 77.093 25.9046 76.576 25.9046ZM82.5323 25.9173C82.1175 25.9173 81.7425 25.8406 81.4073 25.6872C81.0721 25.531 80.8064 25.3051 80.6104 25.0097C80.4172 24.7142 80.3207 24.352 80.3207 23.923C80.3207 23.5537 80.3917 23.2497 80.5337 23.0111C80.6758 22.7725 80.8675 22.5835 81.109 22.4443C81.3505 22.3051 81.6204 22.2 81.9187 22.129C82.217 22.058 82.5209 22.004 82.8306 21.9671C83.2226 21.9216 83.5408 21.8847 83.7851 21.8563C84.0295 21.825 84.207 21.7753 84.3178 21.7071C84.4286 21.6389 84.484 21.5281 84.484 21.3747V21.3449C84.484 20.9727 84.3789 20.6844 84.1687 20.4798C83.9613 20.2753 83.6516 20.173 83.2397 20.173C82.8107 20.173 82.4726 20.2682 82.2255 20.4585C81.9812 20.646 81.8121 20.8548 81.7184 21.085L80.5209 20.8122C80.663 20.4145 80.8704 20.0935 81.1431 19.8492C81.4187 19.602 81.7354 19.423 82.0934 19.3122C82.4513 19.1986 82.8278 19.1418 83.2226 19.1418C83.484 19.1418 83.761 19.173 84.0536 19.2355C84.3491 19.2952 84.6246 19.406 84.8803 19.5679C85.1388 19.7298 85.3505 19.9614 85.5153 20.2625C85.68 20.5608 85.7624 20.9486 85.7624 21.4259V25.7725H84.5181V24.8776H84.467C84.3846 25.0423 84.261 25.2043 84.0962 25.3634C83.9314 25.5225 83.7198 25.6546 83.4613 25.7597C83.2028 25.8648 82.8931 25.9173 82.5323 25.9173ZM82.8093 24.8946C83.1616 24.8946 83.4627 24.825 83.7127 24.6858C83.9655 24.5466 84.1573 24.3648 84.288 24.1404C84.4215 23.9131 84.4883 23.6702 84.4883 23.4117V22.5679C84.4428 22.6134 84.3547 22.656 84.2241 22.6958C84.0962 22.7327 83.9499 22.7654 83.7851 22.7938C83.6204 22.8193 83.4599 22.8435 83.3036 22.8662C83.1474 22.8861 83.0167 22.9031 82.9116 22.9173C82.6644 22.9486 82.4385 23.0012 82.234 23.075C82.0323 23.1489 81.8704 23.2554 81.7482 23.3946C81.6289 23.531 81.5692 23.7128 81.5692 23.9401C81.5692 24.2554 81.6857 24.4941 81.9187 24.656C82.1516 24.8151 82.4485 24.8946 82.8093 24.8946ZM90.5149 19.227V20.2497H86.9396V19.227H90.5149ZM87.8984 17.6588H89.1726V23.8506C89.1726 24.0977 89.2095 24.2838 89.2834 24.4088C89.3572 24.531 89.4524 24.6148 89.5689 24.6602C89.6882 24.7029 89.8175 24.7242 89.9567 24.7242C90.0589 24.7242 90.1484 24.7171 90.2251 24.7029C90.3018 24.6887 90.3615 24.6773 90.4041 24.6688L90.6342 25.7213C90.5604 25.7497 90.4552 25.7781 90.3189 25.8066C90.1825 25.8378 90.0121 25.8548 89.8075 25.8577C89.4723 25.8634 89.1598 25.8037 88.87 25.6787C88.5802 25.5537 88.3459 25.3605 88.1669 25.0992C87.9879 24.8378 87.8984 24.5097 87.8984 24.1148V17.6588ZM91.9243 25.7725V19.227H93.1985V25.7725H91.9243ZM92.5678 18.2171C92.3462 18.2171 92.1559 18.1432 91.9968 17.9955C91.8405 17.8449 91.7624 17.6659 91.7624 17.4585C91.7624 17.2483 91.8405 17.0693 91.9968 16.9216C92.1559 16.771 92.3462 16.6958 92.5678 16.6958C92.7894 16.6958 92.9783 16.771 93.1346 16.9216C93.2937 17.0693 93.3732 17.2483 93.3732 17.4585C93.3732 17.6659 93.2937 17.8449 93.1346 17.9955C92.9783 18.1432 92.7894 18.2171 92.5678 18.2171ZM97.6697 25.9046C97.0561 25.9046 96.5206 25.7639 96.0632 25.4827C95.6058 25.2014 95.2507 24.808 94.9979 24.3023C94.745 23.7966 94.6186 23.2057 94.6186 22.5296C94.6186 21.8506 94.745 21.2568 94.9979 20.7483C95.2507 20.2398 95.6058 19.8449 96.0632 19.5637C96.5206 19.2824 97.0561 19.1418 97.6697 19.1418C98.2834 19.1418 98.8189 19.2824 99.2763 19.5637C99.7336 19.8449 100.089 20.2398 100.342 20.7483C100.594 21.2568 100.721 21.8506 100.721 22.5296C100.721 23.2057 100.594 23.7966 100.342 24.3023C100.089 24.808 99.7336 25.2014 99.2763 25.4827C98.8189 25.7639 98.2834 25.9046 97.6697 25.9046ZM97.674 24.835C98.0717 24.835 98.4013 24.7298 98.6626 24.5196C98.924 24.3094 99.1172 24.0296 99.2422 23.6801C99.37 23.3307 99.4339 22.9458 99.4339 22.5253C99.4339 22.1077 99.37 21.7242 99.2422 21.3747C99.1172 21.0225 98.924 20.7398 98.6626 20.5267C98.4013 20.3137 98.0717 20.2071 97.674 20.2071C97.2734 20.2071 96.941 20.3137 96.6768 20.5267C96.4155 20.7398 96.2209 21.0225 96.093 21.3747C95.968 21.7242 95.9055 22.1077 95.9055 22.5253C95.9055 22.9458 95.968 23.3307 96.093 23.6801C96.2209 24.0296 96.4155 24.3094 96.6768 24.5196C96.941 24.7298 97.2734 24.835 97.674 24.835ZM103.417 21.8861V25.7725H102.143V19.227H103.366V20.2923H103.447C103.598 19.9458 103.833 19.6673 104.154 19.4571C104.478 19.2469 104.886 19.1418 105.377 19.1418C105.823 19.1418 106.214 19.2355 106.549 19.423C106.885 19.6077 107.145 19.8833 107.329 20.2497C107.514 20.6162 107.606 21.0693 107.606 21.6091V25.7725H106.332V21.7625C106.332 21.2881 106.208 20.9173 105.961 20.6503C105.714 20.3804 105.375 20.2455 104.943 20.2455C104.647 20.2455 104.385 20.3094 104.154 20.4372C103.927 20.5651 103.747 20.7526 103.613 20.9997C103.483 21.2441 103.417 21.5395 103.417 21.8861Z" fill="#040404"/>
<defs>
<filter id="filter0_d_977_7" x="0.00039053" y="-9.77516e-05" width="170.407" height="116.926" filterUnits="userSpaceOnUse" color-interpolation-filters="sRGB">
<feFlood flood-opacity="0" result="BackgroundImageFix"/>
<feColorMatrix in="SourceAlpha" type="matrix" values="0 0 0 0 0 0 0 0 0 0 0 0 0 0 0 0 0 0 127 0" result="hardAlpha"/>
<feMorphology radius="2" operator="dilate" in="SourceAlpha" result="effect1_dropShadow_977_7"/>
<feOffset dy="3"/>
<feGaussianBlur stdDeviation="3.95"/>
<feComposite in2="hardAlpha" operator="out"/>
<feColorMatrix type="matrix" values="0 0 0 0 0 0 0 0 0 0 0 0 0 0 0 0 0 0 0.1 0"/>
<feBlend mode="normal" in2="BackgroundImageFix" result="effect1_dropShadow_977_7"/>
<feBlend mode="normal" in="SourceGraphic" in2="effect1_dropShadow_977_7" result="shape"/>
</filter>
</defs>
</svg>
