<svg width="171" height="117" viewBox="0 0 171 117" fill="none" xmlns="http://www.w3.org/2000/svg">
<g filter="url(#filter0_d_977_7)">
<rect x="9.90039" y="6.90002" width="150.607" height="97.1257" rx="10" fill="white"/>
</g>
<rect x="21.4346" y="47.7955" width="63.7687" height="41.2208" fill="#D3D7DF"/>
<rect x="99.0176" y="54.9557" width="42.4866" height="3.50377" fill="#D3D7DF"/>
<rect x="99.0176" y="62.5363" width="42.4866" height="3.50377" fill="#D3D7DF"/>
<rect x="99.0176" y="70.1173" width="42.4866" height="3.50377" fill="#D3D7DF"/>
<rect x="99.0176" y="77.6984" width="42.4866" height="3.50377" fill="#D3D7DF"/>
<path d="M59.9172 25.7727V17.0454H61.234V24.6392H65.1885V25.7727H59.9172ZM69.3455 25.9048C68.7319 25.9048 68.1964 25.7642 67.739 25.4829C67.2816 25.2017 66.9265 24.8082 66.6736 24.3025C66.4208 23.7969 66.2944 23.2059 66.2944 22.5298C66.2944 21.8508 66.4208 21.2571 66.6736 20.7486C66.9265 20.24 67.2816 19.8451 67.739 19.5639C68.1964 19.2826 68.7319 19.142 69.3455 19.142C69.9591 19.142 70.4947 19.2826 70.952 19.5639C71.4094 19.8451 71.7645 20.24 72.0174 20.7486C72.2702 21.2571 72.3966 21.8508 72.3966 22.5298C72.3966 23.2059 72.2702 23.7969 72.0174 24.3025C71.7645 24.8082 71.4094 25.2017 70.952 25.4829C70.4947 25.7642 69.9591 25.9048 69.3455 25.9048ZM69.3498 24.8352C69.7475 24.8352 70.077 24.7301 70.3384 24.5199C70.5998 24.3096 70.793 24.0298 70.918 23.6804C71.0458 23.3309 71.1097 22.946 71.1097 22.5255C71.1097 22.1079 71.0458 21.7244 70.918 21.375C70.793 21.0227 70.5998 20.74 70.3384 20.527C70.077 20.3139 69.7475 20.2074 69.3498 20.2074C68.9492 20.2074 68.6168 20.3139 68.3526 20.527C68.0912 20.74 67.8966 21.0227 67.7688 21.375C67.6438 21.7244 67.5813 22.1079 67.5813 22.5255C67.5813 22.946 67.6438 23.3309 67.7688 23.6804C67.8966 24.0298 68.0912 24.3096 68.3526 24.5199C68.6168 24.7301 68.9492 24.8352 69.3498 24.8352ZM76.576 25.9048C75.9425 25.9048 75.397 25.7613 74.9396 25.4744C74.4851 25.1846 74.1356 24.7855 73.8913 24.277C73.647 23.7684 73.5248 23.1861 73.5248 22.5298C73.5248 21.865 73.6498 21.2784 73.8998 20.7699C74.1498 20.2585 74.5021 19.8594 74.9567 19.5724C75.4112 19.2855 75.9467 19.142 76.5632 19.142C77.0604 19.142 77.5035 19.2344 77.8927 19.419C78.2819 19.6008 78.5959 19.8565 78.8345 20.1861C79.076 20.5156 79.2194 20.9005 79.2649 21.3409H78.0248C77.9567 21.0341 77.8004 20.7699 77.5561 20.5483C77.3146 20.3267 76.9908 20.2159 76.5845 20.2159C76.2294 20.2159 75.9183 20.3096 75.6513 20.4971C75.3871 20.6818 75.1811 20.946 75.0334 21.2898C74.8856 21.6307 74.8118 22.0341 74.8118 22.5C74.8118 22.9773 74.8842 23.3892 75.0291 23.7358C75.174 24.0824 75.3785 24.3508 75.6427 24.5412C75.9098 24.7315 76.2237 24.8267 76.5845 24.8267C76.826 24.8267 77.0447 24.7826 77.2408 24.6946C77.4396 24.6037 77.6058 24.4744 77.7393 24.3068C77.8757 24.1392 77.9709 23.9375 78.0248 23.7017H79.2649C79.2194 24.125 79.0817 24.5028 78.8515 24.8352C78.6214 25.1676 78.3132 25.429 77.9268 25.6193C77.5433 25.8096 77.093 25.9048 76.576 25.9048ZM82.5323 25.9176C82.1175 25.9176 81.7425 25.8409 81.4073 25.6875C81.0721 25.5312 80.8064 25.3054 80.6104 25.0099C80.4172 24.7145 80.3207 24.3523 80.3207 23.9233C80.3207 23.554 80.3917 23.25 80.5337 23.0113C80.6758 22.7727 80.8675 22.5838 81.109 22.4446C81.3505 22.3054 81.6204 22.2003 81.9187 22.1292C82.217 22.0582 82.5209 22.0042 82.8306 21.9673C83.2226 21.9219 83.5408 21.8849 83.7851 21.8565C84.0295 21.8253 84.207 21.7755 84.3178 21.7074C84.4286 21.6392 84.484 21.5284 84.484 21.375V21.3451C84.484 20.973 84.3789 20.6846 84.1687 20.4801C83.9613 20.2755 83.6516 20.1733 83.2397 20.1733C82.8107 20.1733 82.4726 20.2684 82.2255 20.4588C81.9812 20.6463 81.8121 20.8551 81.7184 21.0852L80.5209 20.8125C80.663 20.4148 80.8704 20.0937 81.1431 19.8494C81.4187 19.6023 81.7354 19.4233 82.0934 19.3125C82.4513 19.1988 82.8278 19.142 83.2226 19.142C83.484 19.142 83.761 19.1733 84.0536 19.2358C84.3491 19.2954 84.6246 19.4062 84.8803 19.5682C85.1388 19.7301 85.3505 19.9616 85.5153 20.2628C85.68 20.5611 85.7624 20.9488 85.7624 21.4261V25.7727H84.5181V24.8778H84.467C84.3846 25.0426 84.261 25.2045 84.0962 25.3636C83.9314 25.5227 83.7198 25.6548 83.4613 25.7599C83.2028 25.865 82.8931 25.9176 82.5323 25.9176ZM82.8093 24.8949C83.1616 24.8949 83.4627 24.8253 83.7127 24.6861C83.9655 24.5469 84.1573 24.365 84.288 24.1406C84.4215 23.9133 84.4883 23.6704 84.4883 23.4119V22.5682C84.4428 22.6136 84.3547 22.6562 84.2241 22.696C84.0962 22.7329 83.9499 22.7656 83.7851 22.794C83.6204 22.8196 83.4599 22.8437 83.3036 22.8665C83.1474 22.8863 83.0167 22.9034 82.9116 22.9176C82.6644 22.9488 82.4385 23.0014 82.234 23.0753C82.0323 23.1491 81.8704 23.2557 81.7482 23.3949C81.6289 23.5312 81.5692 23.713 81.5692 23.9403C81.5692 24.2557 81.6857 24.4943 81.9187 24.6562C82.1516 24.8153 82.4485 24.8949 82.8093 24.8949ZM90.5149 19.2273V20.25H86.9396V19.2273H90.5149ZM87.8984 17.6591H89.1726V23.8508C89.1726 24.098 89.2095 24.2841 89.2834 24.4091C89.3572 24.5312 89.4524 24.615 89.5689 24.6605C89.6882 24.7031 89.8175 24.7244 89.9567 24.7244C90.0589 24.7244 90.1484 24.7173 90.2251 24.7031C90.3018 24.6889 90.3615 24.6775 90.4041 24.669L90.6342 25.7216C90.5604 25.75 90.4552 25.7784 90.3189 25.8068C90.1825 25.838 90.0121 25.8551 89.8075 25.8579C89.4723 25.8636 89.1598 25.804 88.87 25.679C88.5802 25.554 88.3459 25.3608 88.1669 25.0994C87.9879 24.838 87.8984 24.5099 87.8984 24.115V17.6591ZM91.9243 25.7727V19.2273H93.1985V25.7727H91.9243ZM92.5678 18.2173C92.3462 18.2173 92.1559 18.1434 91.9968 17.9957C91.8405 17.8451 91.7624 17.6662 91.7624 17.4588C91.7624 17.2486 91.8405 17.0696 91.9968 16.9219C92.1559 16.7713 92.3462 16.696 92.5678 16.696C92.7894 16.696 92.9783 16.7713 93.1346 16.9219C93.2937 17.0696 93.3732 17.2486 93.3732 17.4588C93.3732 17.6662 93.2937 17.8451 93.1346 17.9957C92.9783 18.1434 92.7894 18.2173 92.5678 18.2173ZM97.6697 25.9048C97.0561 25.9048 96.5206 25.7642 96.0632 25.4829C95.6058 25.2017 95.2507 24.8082 94.9979 24.3025C94.745 23.7969 94.6186 23.2059 94.6186 22.5298C94.6186 21.8508 94.745 21.2571 94.9979 20.7486C95.2507 20.24 95.6058 19.8451 96.0632 19.5639C96.5206 19.2826 97.0561 19.142 97.6697 19.142C98.2834 19.142 98.8189 19.2826 99.2763 19.5639C99.7336 19.8451 100.089 20.24 100.342 20.7486C100.594 21.2571 100.721 21.8508 100.721 22.5298C100.721 23.2059 100.594 23.7969 100.342 24.3025C100.089 24.8082 99.7336 25.2017 99.2763 25.4829C98.8189 25.7642 98.2834 25.9048 97.6697 25.9048ZM97.674 24.8352C98.0717 24.8352 98.4013 24.7301 98.6626 24.5199C98.924 24.3096 99.1172 24.0298 99.2422 23.6804C99.37 23.3309 99.4339 22.946 99.4339 22.5255C99.4339 22.1079 99.37 21.7244 99.2422 21.375C99.1172 21.0227 98.924 20.74 98.6626 20.527C98.4013 20.3139 98.0717 20.2074 97.674 20.2074C97.2734 20.2074 96.941 20.3139 96.6768 20.527C96.4155 20.74 96.2209 21.0227 96.093 21.375C95.968 21.7244 95.9055 22.1079 95.9055 22.5255C95.9055 22.946 95.968 23.3309 96.093 23.6804C96.2209 24.0298 96.4155 24.3096 96.6768 24.5199C96.941 24.7301 97.2734 24.8352 97.674 24.8352ZM103.417 21.8863V25.7727H102.143V19.2273H103.366V20.2926H103.447C103.598 19.946 103.833 19.6676 104.154 19.4574C104.478 19.2471 104.886 19.142 105.377 19.142C105.823 19.142 106.214 19.2358 106.549 19.4233C106.885 19.6079 107.145 19.8835 107.329 20.25C107.514 20.6165 107.606 21.0696 107.606 21.6094V25.7727H106.332V21.7628C106.332 21.2883 106.208 20.9176 105.961 20.6505C105.714 20.3807 105.375 20.2457 104.943 20.2457C104.647 20.2457 104.385 20.3096 104.154 20.4375C103.927 20.5653 103.747 20.7528 103.613 21C103.483 21.2443 103.417 21.5398 103.417 21.8863Z" fill="#040404"/>
<defs>
<filter id="filter0_d_977_7" x="0.00039053" y="2.43187e-05" width="170.407" height="116.926" filterUnits="userSpaceOnUse" color-interpolation-filters="sRGB">
<feFlood flood-opacity="0" result="BackgroundImageFix"/>
<feColorMatrix in="SourceAlpha" type="matrix" values="0 0 0 0 0 0 0 0 0 0 0 0 0 0 0 0 0 0 127 0" result="hardAlpha"/>
<feMorphology radius="2" operator="dilate" in="SourceAlpha" result="effect1_dropShadow_977_7"/>
<feOffset dy="3"/>
<feGaussianBlur stdDeviation="3.95"/>
<feComposite in2="hardAlpha" operator="out"/>
<feColorMatrix type="matrix" values="0 0 0 0 0 0 0 0 0 0 0 0 0 0 0 0 0 0 0.1 0"/>
<feBlend mode="normal" in2="BackgroundImageFix" result="effect1_dropShadow_977_7"/>
<feBlend mode="normal" in="SourceGraphic" in2="effect1_dropShadow_977_7" result="shape"/>
</filter>
</defs>
</svg>
