<svg width="18" height="19" viewBox="0 0 18 19" fill="none" xmlns="http://www.w3.org/2000/svg">
<path d="M3.28613 2C3.28613 0.89543 4.18156 0 5.28613 0H12.0879L17.0879 5V16.934C17.0879 18.0385 16.1925 18.934 15.0879 18.934H5.28613C4.18156 18.934 3.28613 18.0385 3.28613 16.934V2Z" fill="#EAEAE4"/>
<path d="M17.0879 5.00391H14.0684C12.9724 5.0037 12.0841 4.11549 12.084 3.01953V0L17.0879 5.00391Z" fill="#BABAB9"/>
<rect y="8.77588" width="12.084" height="7.55969" rx="1" fill="#F24646"/>
<path d="M1.45814 14.4609V10.8246H2.8928C3.16861 10.8246 3.40357 10.8772 3.5977 10.9826C3.79183 11.0868 3.93979 11.2318 4.04159 11.4176C4.14458 11.6023 4.19607 11.8153 4.19607 12.0568C4.19607 12.2983 4.14398 12.5114 4.03982 12.696C3.93565 12.8807 3.78473 13.0245 3.58705 13.1275C3.39055 13.2305 3.15262 13.282 2.87327 13.282H1.95885V12.6658H2.74898C2.89694 12.6658 3.01887 12.6404 3.11475 12.5895C3.21181 12.5374 3.28402 12.4658 3.33137 12.3746C3.3799 12.2823 3.40416 12.1764 3.40416 12.0568C3.40416 11.9361 3.3799 11.8307 3.33137 11.7408C3.28402 11.6496 3.21181 11.5792 3.11475 11.5295C3.01768 11.4786 2.89458 11.4531 2.74543 11.4531H2.22696V14.4609H1.45814ZM5.98451 14.4609H4.69545V10.8246H5.99516C6.36093 10.8246 6.6758 10.8974 6.93976 11.043C7.20373 11.1874 7.40674 11.3951 7.54878 11.6662C7.69201 11.9373 7.76363 12.2616 7.76363 12.6392C7.76363 13.018 7.69201 13.3435 7.54878 13.6158C7.40674 13.888 7.20255 14.0969 6.93621 14.2425C6.67106 14.3881 6.35383 14.4609 5.98451 14.4609ZM5.46427 13.8022H5.95255C6.17982 13.8022 6.37099 13.762 6.52606 13.6815C6.68231 13.5998 6.79949 13.4737 6.87762 13.3033C6.95693 13.1316 6.99658 12.9103 6.99658 12.6392C6.99658 12.3705 6.95693 12.1509 6.87762 11.9805C6.79949 11.81 6.6829 11.6845 6.52783 11.604C6.37277 11.5236 6.1816 11.4833 5.95432 11.4833H5.46427V13.8022ZM8.33314 14.4609V10.8246H10.7408V11.4585H9.10196V12.3249H10.581V12.9588H9.10196V14.4609H8.33314Z" fill="#FFFCEE"/>
</svg>
