<svg width="171" height="117" viewBox="0 0 171 117" fill="none" xmlns="http://www.w3.org/2000/svg">
<g filter="url(#filter0_d_977_39)">
<rect x="9.90039" y="6.90002" width="150.607" height="97.1257" rx="10" fill="white"/>
</g>
<rect x="21.4346" y="47.7955" width="63.7687" height="41.2208" fill="#D3D7DF"/>
<rect x="99.0176" y="54.9557" width="42.4866" height="3.50377" fill="#D3D7DF"/>
<rect x="99.0176" y="62.5363" width="42.4866" height="3.50377" fill="#D3D7DF"/>
<rect x="99.0176" y="70.1173" width="42.4866" height="3.50377" fill="#D3D7DF"/>
<rect x="99.0176" y="77.6984" width="42.4866" height="3.50377" fill="#D3D7DF"/>
<path d="M48.2044 25.7727V17.0454H51.3151C51.9941 17.0454 52.5566 17.169 53.0026 17.4162C53.4487 17.6633 53.7825 18.0014 54.0041 18.4304C54.2257 18.8565 54.3365 19.3366 54.3365 19.8707C54.3365 20.4076 54.2242 20.8906 53.9998 21.3196C53.7782 21.7457 53.443 22.0838 52.9941 22.3338C52.5481 22.5809 51.987 22.7045 51.3109 22.7045H49.1717V21.588H51.1916C51.6205 21.588 51.9686 21.5142 52.2356 21.3665C52.5026 21.2159 52.6987 21.0113 52.8237 20.7528C52.9487 20.4943 53.0112 20.2003 53.0112 19.8707C53.0112 19.5412 52.9487 19.2486 52.8237 18.9929C52.6987 18.7372 52.5012 18.5369 52.2313 18.392C51.9643 18.2471 51.612 18.1747 51.1745 18.1747H49.5211V25.7727H48.2044ZM57.052 21.8863V25.7727H55.7779V17.0454H57.035V20.2926H57.1159C57.2693 19.9403 57.5037 19.6605 57.8191 19.4531C58.1344 19.2457 58.5463 19.142 59.0548 19.142C59.5037 19.142 59.8958 19.2344 60.231 19.419C60.5691 19.6037 60.8304 19.8792 61.0151 20.2457C61.2026 20.6094 61.2963 21.0639 61.2963 21.6094V25.7727H60.0222V21.7628C60.0222 21.2826 59.8986 20.9105 59.6514 20.6463C59.4043 20.3792 59.0605 20.2457 58.6202 20.2457C58.3191 20.2457 58.0492 20.3096 57.8105 20.4375C57.5747 20.5653 57.3887 20.7528 57.2523 21C57.1188 21.2443 57.052 21.5398 57.052 21.8863ZM65.7537 25.9048C65.1401 25.9048 64.6046 25.7642 64.1472 25.4829C63.6898 25.2017 63.3347 24.8082 63.0818 24.3025C62.829 23.7969 62.7026 23.2059 62.7026 22.5298C62.7026 21.8508 62.829 21.2571 63.0818 20.7486C63.3347 20.24 63.6898 19.8451 64.1472 19.5639C64.6046 19.2826 65.1401 19.142 65.7537 19.142C66.3673 19.142 66.9029 19.2826 67.3602 19.5639C67.8176 19.8451 68.1727 20.24 68.4256 20.7486C68.6784 21.2571 68.8048 21.8508 68.8048 22.5298C68.8048 23.2059 68.6784 23.7969 68.4256 24.3025C68.1727 24.8082 67.8176 25.2017 67.3602 25.4829C66.9029 25.7642 66.3673 25.9048 65.7537 25.9048ZM65.758 24.8352C66.1557 24.8352 66.4852 24.7301 66.7466 24.5199C67.008 24.3096 67.2012 24.0298 67.3262 23.6804C67.454 23.3309 67.5179 22.946 67.5179 22.5255C67.5179 22.1079 67.454 21.7244 67.3262 21.375C67.2012 21.0227 67.008 20.74 66.7466 20.527C66.4852 20.3139 66.1557 20.2074 65.758 20.2074C65.3574 20.2074 65.025 20.3139 64.7608 20.527C64.4995 20.74 64.3048 21.0227 64.177 21.375C64.052 21.7244 63.9895 22.1079 63.9895 22.5255C63.9895 22.946 64.052 23.3309 64.177 23.6804C64.3048 24.0298 64.4995 24.3096 64.7608 24.5199C65.025 24.7301 65.3574 24.8352 65.758 24.8352ZM73.2825 19.2273V20.25H69.7072V19.2273H73.2825ZM70.666 17.6591H71.9401V23.8508C71.9401 24.098 71.9771 24.2841 72.0509 24.4091C72.1248 24.5312 72.22 24.615 72.3365 24.6605C72.4558 24.7031 72.585 24.7244 72.7242 24.7244C72.8265 24.7244 72.916 24.7173 72.9927 24.7031C73.0694 24.6889 73.1291 24.6775 73.1717 24.669L73.4018 25.7216C73.3279 25.75 73.2228 25.7784 73.0865 25.8068C72.9501 25.838 72.7796 25.8551 72.5751 25.8579C72.2399 25.8636 71.9274 25.804 71.6376 25.679C71.3478 25.554 71.1134 25.3608 70.9345 25.0994C70.7555 24.838 70.666 24.5099 70.666 24.115V17.6591ZM77.3787 25.9048C76.7651 25.9048 76.2296 25.7642 75.7722 25.4829C75.3148 25.2017 74.9597 24.8082 74.7068 24.3025C74.454 23.7969 74.3276 23.2059 74.3276 22.5298C74.3276 21.8508 74.454 21.2571 74.7068 20.7486C74.9597 20.24 75.3148 19.8451 75.7722 19.5639C76.2296 19.2826 76.7651 19.142 77.3787 19.142C77.9923 19.142 78.5279 19.2826 78.9852 19.5639C79.4426 19.8451 79.7977 20.24 80.0506 20.7486C80.3034 21.2571 80.4298 21.8508 80.4298 22.5298C80.4298 23.2059 80.3034 23.7969 80.0506 24.3025C79.7977 24.8082 79.4426 25.2017 78.9852 25.4829C78.5279 25.7642 77.9923 25.9048 77.3787 25.9048ZM77.383 24.8352C77.7807 24.8352 78.1102 24.7301 78.3716 24.5199C78.633 24.3096 78.8262 24.0298 78.9512 23.6804C79.079 23.3309 79.1429 22.946 79.1429 22.5255C79.1429 22.1079 79.079 21.7244 78.9512 21.375C78.8262 21.0227 78.633 20.74 78.3716 20.527C78.1102 20.3139 77.7807 20.2074 77.383 20.2074C76.9824 20.2074 76.65 20.3139 76.3858 20.527C76.1245 20.74 75.9298 21.0227 75.802 21.375C75.677 21.7244 75.6145 22.1079 75.6145 22.5255C75.6145 22.946 75.677 23.3309 75.802 23.6804C75.9298 24.0298 76.1245 24.3096 76.3858 24.5199C76.65 24.7301 76.9824 24.8352 77.383 24.8352ZM87.5932 24.3068V18.5454H88.7395V24.3068H87.5932ZM85.2878 21.9971V20.8551H91.0492V21.9971H85.2878ZM95.8677 18.179V17.0454H102.622V18.179H99.899V25.7727H98.5865V18.179H95.8677ZM105.884 25.9048C105.239 25.9048 104.684 25.767 104.218 25.4915C103.755 25.213 103.397 24.8224 103.144 24.3196C102.894 23.8139 102.769 23.2216 102.769 22.5426C102.769 21.8721 102.894 21.2812 103.144 20.7699C103.397 20.2585 103.749 19.8594 104.201 19.5724C104.655 19.2855 105.187 19.142 105.795 19.142C106.164 19.142 106.522 19.2031 106.868 19.3253C107.215 19.4474 107.526 19.6392 107.802 19.9005C108.077 20.1619 108.295 20.5014 108.454 20.919C108.613 21.3338 108.692 21.838 108.692 22.4318V22.8835H103.489V21.929H107.444C107.444 21.5937 107.376 21.2969 107.239 21.0383C107.103 20.777 106.911 20.571 106.664 20.4204C106.42 20.2699 106.133 20.1946 105.803 20.1946C105.445 20.1946 105.133 20.2826 104.866 20.4588C104.601 20.6321 104.397 20.8594 104.252 21.1406C104.11 21.419 104.039 21.7216 104.039 22.0483V22.794C104.039 23.2315 104.116 23.6037 104.269 23.9105C104.425 24.2173 104.643 24.4517 104.921 24.6136C105.199 24.7727 105.525 24.8523 105.897 24.8523C106.138 24.8523 106.358 24.8182 106.557 24.75C106.756 24.679 106.928 24.5738 107.073 24.4346C107.218 24.2954 107.329 24.1236 107.405 23.919L108.611 24.1363C108.515 24.4915 108.341 24.8025 108.091 25.0696C107.844 25.3338 107.533 25.5398 107.158 25.6875C106.786 25.8324 106.361 25.9048 105.884 25.9048ZM110.959 19.2273L112.404 21.7755L113.861 19.2273H115.255L113.214 22.5L115.272 25.7727H113.878L112.404 23.3267L110.934 25.7727H109.536L111.573 22.5L109.562 19.2273H110.959ZM119.618 19.2273V20.25H116.043V19.2273H119.618ZM117.002 17.6591H118.276V23.8508C118.276 24.098 118.313 24.2841 118.387 24.4091C118.461 24.5312 118.556 24.615 118.672 24.6605C118.792 24.7031 118.921 24.7244 119.06 24.7244C119.162 24.7244 119.252 24.7173 119.329 24.7031C119.405 24.6889 119.465 24.6775 119.508 24.669L119.738 25.7216C119.664 25.75 119.559 25.7784 119.422 25.8068C119.286 25.838 119.116 25.8551 118.911 25.8579C118.576 25.8636 118.263 25.804 117.974 25.679C117.684 25.554 117.449 25.3608 117.27 25.0994C117.091 24.838 117.002 24.5099 117.002 24.115V17.6591Z" fill="#040404"/>
<defs>
<filter id="filter0_d_977_39" x="0.00039053" y="2.43187e-05" width="170.407" height="116.926" filterUnits="userSpaceOnUse" color-interpolation-filters="sRGB">
<feFlood flood-opacity="0" result="BackgroundImageFix"/>
<feColorMatrix in="SourceAlpha" type="matrix" values="0 0 0 0 0 0 0 0 0 0 0 0 0 0 0 0 0 0 127 0" result="hardAlpha"/>
<feMorphology radius="2" operator="dilate" in="SourceAlpha" result="effect1_dropShadow_977_39"/>
<feOffset dy="3"/>
<feGaussianBlur stdDeviation="3.95"/>
<feComposite in2="hardAlpha" operator="out"/>
<feColorMatrix type="matrix" values="0 0 0 0 0 0 0 0 0 0 0 0 0 0 0 0 0 0 0.1 0"/>
<feBlend mode="normal" in2="BackgroundImageFix" result="effect1_dropShadow_977_39"/>
<feBlend mode="normal" in="SourceGraphic" in2="effect1_dropShadow_977_39" result="shape"/>
</filter>
</defs>
</svg>
