<svg width="171" height="117" viewBox="0 0 171 117" fill="none" xmlns="http://www.w3.org/2000/svg">
<g filter="url(#filter0_d_977_79)">
<rect x="9.90039" y="6.90002" width="150.607" height="97.1257" rx="10" fill="white"/>
</g>
<rect x="21.4346" y="40.8967" width="126.205" height="50.9464" rx="3" fill="#D3D7DF"/>
<path d="M67.7922 25.7727V17.0454H70.903C71.582 17.0454 72.1445 17.169 72.5905 17.4162C73.0366 17.6633 73.3704 18.0014 73.592 18.4304C73.8135 18.8565 73.9243 19.3366 73.9243 19.8707C73.9243 20.4076 73.8121 20.8906 73.5877 21.3196C73.3661 21.7457 73.0309 22.0838 72.582 22.3338C72.136 22.5809 71.5749 22.7045 70.8988 22.7045H68.7596V21.588H70.7795C71.2084 21.588 71.5564 21.5142 71.8235 21.3665C72.0905 21.2159 72.2866 21.0113 72.4116 20.7528C72.5366 20.4943 72.5991 20.2003 72.5991 19.8707C72.5991 19.5412 72.5366 19.2486 72.4116 18.9929C72.2866 18.7372 72.0891 18.5369 71.8192 18.392C71.5522 18.2471 71.1999 18.1747 70.7624 18.1747H69.109V25.7727H67.7922ZM76.6399 21.8863V25.7727H75.3658V17.0454H76.6229V20.2926H76.7038C76.8572 19.9403 77.0916 19.6605 77.4069 19.4531C77.7223 19.2457 78.1342 19.142 78.6427 19.142C79.0916 19.142 79.4836 19.2344 79.8189 19.419C80.1569 19.6037 80.4183 19.8792 80.603 20.2457C80.7905 20.6094 80.8842 21.0639 80.8842 21.6094V25.7727H79.6101V21.7628C79.6101 21.2826 79.4865 20.9105 79.2393 20.6463C78.9922 20.3792 78.6484 20.2457 78.2081 20.2457C77.9069 20.2457 77.6371 20.3096 77.3984 20.4375C77.1626 20.5653 76.9765 20.7528 76.8402 21C76.7067 21.2443 76.6399 21.5398 76.6399 21.8863ZM85.3416 25.9048C84.728 25.9048 84.1925 25.7642 83.7351 25.4829C83.2777 25.2017 82.9226 24.8082 82.6697 24.3025C82.4169 23.7969 82.2905 23.2059 82.2905 22.5298C82.2905 21.8508 82.4169 21.2571 82.6697 20.7486C82.9226 20.24 83.2777 19.8451 83.7351 19.5639C84.1925 19.2826 84.728 19.142 85.3416 19.142C85.9552 19.142 86.4908 19.2826 86.9481 19.5639C87.4055 19.8451 87.7606 20.24 88.0135 20.7486C88.2663 21.2571 88.3927 21.8508 88.3927 22.5298C88.3927 23.2059 88.2663 23.7969 88.0135 24.3025C87.7606 24.8082 87.4055 25.2017 86.9481 25.4829C86.4908 25.7642 85.9552 25.9048 85.3416 25.9048ZM85.3459 24.8352C85.7436 24.8352 86.0731 24.7301 86.3345 24.5199C86.5959 24.3096 86.789 24.0298 86.914 23.6804C87.0419 23.3309 87.1058 22.946 87.1058 22.5255C87.1058 22.1079 87.0419 21.7244 86.914 21.375C86.789 21.0227 86.5959 20.74 86.3345 20.527C86.0731 20.3139 85.7436 20.2074 85.3459 20.2074C84.9453 20.2074 84.6129 20.3139 84.3487 20.527C84.0873 20.74 83.8927 21.0227 83.7649 21.375C83.6399 21.7244 83.5774 22.1079 83.5774 22.5255C83.5774 22.946 83.6399 23.3309 83.7649 23.6804C83.8927 24.0298 84.0873 24.3096 84.3487 24.5199C84.6129 24.7301 84.9453 24.8352 85.3459 24.8352ZM92.8704 19.2273V20.25H89.2951V19.2273H92.8704ZM90.2539 17.6591H91.528V23.8508C91.528 24.098 91.565 24.2841 91.6388 24.4091C91.7127 24.5312 91.8079 24.615 91.9243 24.6605C92.0437 24.7031 92.1729 24.7244 92.3121 24.7244C92.4144 24.7244 92.5039 24.7173 92.5806 24.7031C92.6573 24.6889 92.717 24.6775 92.7596 24.669L92.9897 25.7216C92.9158 25.75 92.8107 25.7784 92.6743 25.8068C92.538 25.838 92.3675 25.8551 92.163 25.8579C91.8278 25.8636 91.5153 25.804 91.2255 25.679C90.9357 25.554 90.7013 25.3608 90.5224 25.0994C90.3434 24.838 90.2539 24.5099 90.2539 24.115V17.6591ZM96.9666 25.9048C96.353 25.9048 95.8175 25.7642 95.3601 25.4829C94.9027 25.2017 94.5476 24.8082 94.2947 24.3025C94.0419 23.7969 93.9155 23.2059 93.9155 22.5298C93.9155 21.8508 94.0419 21.2571 94.2947 20.7486C94.5476 20.24 94.9027 19.8451 95.3601 19.5639C95.8175 19.2826 96.353 19.142 96.9666 19.142C97.5802 19.142 98.1158 19.2826 98.5731 19.5639C99.0305 19.8451 99.3856 20.24 99.6385 20.7486C99.8913 21.2571 100.018 21.8508 100.018 22.5298C100.018 23.2059 99.8913 23.7969 99.6385 24.3025C99.3856 24.8082 99.0305 25.2017 98.5731 25.4829C98.1158 25.7642 97.5802 25.9048 96.9666 25.9048ZM96.9709 24.8352C97.3686 24.8352 97.6981 24.7301 97.9595 24.5199C98.2209 24.3096 98.414 24.0298 98.539 23.6804C98.6669 23.3309 98.7308 22.946 98.7308 22.5255C98.7308 22.1079 98.6669 21.7244 98.539 21.375C98.414 21.0227 98.2209 20.74 97.9595 20.527C97.6981 20.3139 97.3686 20.2074 96.9709 20.2074C96.5703 20.2074 96.2379 20.3139 95.9737 20.527C95.7123 20.74 95.5177 21.0227 95.3899 21.375C95.2649 21.7244 95.2024 22.1079 95.2024 22.5255C95.2024 22.946 95.2649 23.3309 95.3899 23.6804C95.5177 24.0298 95.7123 24.3096 95.9737 24.5199C96.2379 24.7301 96.5703 24.8352 96.9709 24.8352Z" fill="#040404"/>
<defs>
<filter id="filter0_d_977_79" x="0.00039053" y="2.43187e-05" width="170.407" height="116.926" filterUnits="userSpaceOnUse" color-interpolation-filters="sRGB">
<feFlood flood-opacity="0" result="BackgroundImageFix"/>
<feColorMatrix in="SourceAlpha" type="matrix" values="0 0 0 0 0 0 0 0 0 0 0 0 0 0 0 0 0 0 127 0" result="hardAlpha"/>
<feMorphology radius="2" operator="dilate" in="SourceAlpha" result="effect1_dropShadow_977_79"/>
<feOffset dy="3"/>
<feGaussianBlur stdDeviation="3.95"/>
<feComposite in2="hardAlpha" operator="out"/>
<feColorMatrix type="matrix" values="0 0 0 0 0 0 0 0 0 0 0 0 0 0 0 0 0 0 0.1 0"/>
<feBlend mode="normal" in2="BackgroundImageFix" result="effect1_dropShadow_977_79"/>
<feBlend mode="normal" in="SourceGraphic" in2="effect1_dropShadow_977_79" result="shape"/>
</filter>
</defs>
</svg>
