<svg width="171" height="117" viewBox="0 0 171 117" fill="none" xmlns="http://www.w3.org/2000/svg">
<g filter="url(#filter0_d_977_59)">
<rect x="9.90039" y="6.90002" width="150.607" height="97.1257" rx="10" fill="white"/>
</g>
<rect x="80.9951" y="63.8846" width="60.5088" height="30.24" rx="3" fill="#D3D7DF"/>
<rect x="22.4346" y="67.3391" width="42.4866" height="3.11458" fill="#D3D7DF"/>
<rect x="22.4346" y="42.8967" width="96.0029" height="5.17383" fill="#D3D7DF"/>
<rect x="22.4346" y="49.7955" width="35.2559" height="5.0553" fill="#D3D7DF"/>
<rect x="22.4346" y="74.0776" width="42.4866" height="3.11458" fill="#D3D7DF"/>
<rect x="22.4346" y="80.8167" width="42.4866" height="3.11458" fill="#D3D7DF"/>
<rect x="22.4346" y="87.5557" width="42.4866" height="3.11458" fill="#D3D7DF"/>
<path d="M60.8569 19.338C60.8114 18.9346 60.6239 18.6221 60.2944 18.4005C59.9648 18.1761 59.5501 18.0639 59.0501 18.0639C58.6921 18.0639 58.3824 18.1207 58.1211 18.2344C57.8597 18.3451 57.6566 18.4986 57.5117 18.6946C57.3697 18.8878 57.2986 19.1079 57.2986 19.3551C57.2986 19.5625 57.3469 19.7415 57.4435 19.892C57.543 20.0426 57.6722 20.169 57.8313 20.2713C57.9932 20.3707 58.1665 20.4545 58.3512 20.5227C58.5358 20.588 58.7134 20.642 58.8839 20.6846L59.7361 20.9062C60.0145 20.9744 60.3001 21.0667 60.5927 21.1832C60.8853 21.2997 61.1566 21.4531 61.4066 21.6434C61.6566 21.8338 61.8583 22.0696 62.0117 22.3508C62.168 22.6321 62.2461 22.9687 62.2461 23.3608C62.2461 23.8551 62.1182 24.294 61.8626 24.6775C61.6097 25.0611 61.2418 25.3636 60.7589 25.5852C60.2787 25.8068 59.6978 25.9176 59.016 25.9176C58.3626 25.9176 57.7972 25.8139 57.3199 25.6065C56.8427 25.3991 56.4691 25.1051 56.1992 24.7244C55.9293 24.3409 55.7802 23.8863 55.7518 23.3608H57.0728C57.0983 23.6761 57.2006 23.9389 57.3796 24.1491C57.5614 24.3565 57.793 24.5113 58.0742 24.6136C58.3583 24.713 58.6694 24.7628 59.0074 24.7628C59.3796 24.7628 59.7106 24.7045 60.0003 24.588C60.293 24.4687 60.5231 24.304 60.6907 24.0937C60.8583 23.8807 60.9421 23.6321 60.9421 23.348C60.9421 23.0895 60.8682 22.8778 60.7205 22.713C60.5756 22.5483 60.3782 22.4119 60.1282 22.304C59.881 22.196 59.6012 22.1008 59.2887 22.0184L58.2574 21.7372C57.5586 21.5469 57.0046 21.267 56.5955 20.8977C56.1893 20.5284 55.9861 20.0398 55.9861 19.4318C55.9861 18.929 56.1225 18.49 56.3952 18.115C56.668 17.74 57.0373 17.4488 57.5032 17.2415C57.9691 17.0312 58.4947 16.9261 59.0799 16.9261C59.6708 16.9261 60.1921 17.0298 60.6438 17.2372C61.0983 17.4446 61.4563 17.7301 61.7177 18.0937C61.979 18.4545 62.1154 18.8693 62.1268 19.338H60.8569ZM64.9915 17.0454V25.7727H63.7173V17.0454H64.9915ZM66.7056 25.7727V19.2273H67.9797V25.7727H66.7056ZM67.3491 18.2173C67.1275 18.2173 66.9371 18.1434 66.778 17.9957C66.6218 17.8451 66.5437 17.6662 66.5437 17.4588C66.5437 17.2486 66.6218 17.0696 66.778 16.9219C66.9371 16.7713 67.1275 16.696 67.3491 16.696C67.5707 16.696 67.7596 16.7713 67.9158 16.9219C68.0749 17.0696 68.1545 17.2486 68.1545 17.4588C68.1545 17.6662 68.0749 17.8451 67.9158 17.9957C67.7596 18.1434 67.5707 18.2173 67.3491 18.2173ZM72.1442 25.9005C71.6158 25.9005 71.1442 25.7656 70.7294 25.4957C70.3175 25.223 69.9936 24.8352 69.7578 24.3324C69.5248 23.8267 69.4084 23.2201 69.4084 22.5128C69.4084 21.8054 69.5263 21.2003 69.7621 20.6974C70.0007 20.1946 70.3274 19.8096 70.7422 19.5426C71.1569 19.2755 71.6271 19.142 72.1527 19.142C72.5589 19.142 72.8856 19.2102 73.1328 19.3466C73.3828 19.4801 73.576 19.6363 73.7123 19.8153C73.8515 19.9943 73.9595 20.152 74.0362 20.2883H74.1129V17.0454H75.3871V25.7727H74.1427V24.7542H74.0362C73.9595 24.8934 73.8487 25.0525 73.7038 25.2315C73.5618 25.4105 73.3658 25.5667 73.1158 25.7003C72.8658 25.8338 72.5419 25.9005 72.1442 25.9005ZM72.4254 24.8139C72.7919 24.8139 73.1015 24.7173 73.3544 24.5241C73.6101 24.3281 73.8033 24.0568 73.9339 23.7102C74.0675 23.3636 74.1342 22.9602 74.1342 22.5C74.1342 22.0454 74.0689 21.6477 73.9382 21.3068C73.8075 20.9659 73.6158 20.7003 73.3629 20.5099C73.1101 20.3196 72.7976 20.2244 72.4254 20.2244C72.0419 20.2244 71.7223 20.3238 71.4666 20.5227C71.2109 20.7216 71.0177 20.9929 70.8871 21.3366C70.7592 21.6804 70.6953 22.0682 70.6953 22.5C70.6953 22.9375 70.7606 23.3309 70.8913 23.6804C71.022 24.0298 71.2152 24.3068 71.4709 24.5113C71.7294 24.713 72.0476 24.8139 72.4254 24.8139ZM80.0266 25.9048C79.3817 25.9048 78.8263 25.767 78.3604 25.4915C77.8974 25.213 77.5394 24.8224 77.2866 24.3196C77.0366 23.8139 76.9116 23.2216 76.9116 22.5426C76.9116 21.8721 77.0366 21.2812 77.2866 20.7699C77.5394 20.2585 77.8917 19.8594 78.3434 19.5724C78.7979 19.2855 79.3292 19.142 79.9371 19.142C80.3064 19.142 80.6644 19.2031 81.011 19.3253C81.3576 19.4474 81.6687 19.6392 81.9442 19.9005C82.2198 20.1619 82.4371 20.5014 82.5962 20.919C82.7553 21.3338 82.8349 21.838 82.8349 22.4318V22.8835H77.6317V21.929H81.5863C81.5863 21.5937 81.5181 21.2969 81.3817 21.0383C81.2454 20.777 81.0536 20.571 80.8064 20.4204C80.5621 20.2699 80.2752 20.1946 79.9457 20.1946C79.5877 20.1946 79.2752 20.2826 79.0082 20.4588C78.7439 20.6321 78.5394 20.8594 78.3945 21.1406C78.2525 21.419 78.1814 21.7216 78.1814 22.0483V22.794C78.1814 23.2315 78.2582 23.6037 78.4116 23.9105C78.5678 24.2173 78.7851 24.4517 79.0635 24.6136C79.342 24.7727 79.6672 24.8523 80.0394 24.8523C80.2809 24.8523 80.501 24.8182 80.6999 24.75C80.8988 24.679 81.0707 24.5738 81.2155 24.4346C81.3604 24.2954 81.4712 24.1236 81.5479 23.919L82.7539 24.1363C82.6573 24.4915 82.484 24.8025 82.234 25.0696C81.9868 25.3338 81.6758 25.5398 81.3008 25.6875C80.9286 25.8324 80.5039 25.9048 80.0266 25.9048ZM90.4797 19.2273V20.25H86.9045V19.2273H90.4797ZM87.8633 17.6591H89.1374V23.8508C89.1374 24.098 89.1743 24.2841 89.2482 24.4091C89.3221 24.5312 89.4172 24.615 89.5337 24.6605C89.653 24.7031 89.7823 24.7244 89.9215 24.7244C90.0238 24.7244 90.1133 24.7173 90.19 24.7031C90.2667 24.6889 90.3263 24.6775 90.3689 24.669L90.5991 25.7216C90.5252 25.75 90.4201 25.7784 90.2837 25.8068C90.1474 25.838 89.9769 25.8551 89.7724 25.8579C89.4371 25.8636 89.1246 25.804 88.8349 25.679C88.5451 25.554 88.3107 25.3608 88.1317 25.0994C87.9528 24.838 87.8633 24.5099 87.8633 24.115V17.6591ZM92.6946 28.2273C92.5042 28.2273 92.3309 28.2116 92.1747 28.1804C92.0184 28.152 91.902 28.1207 91.8253 28.0866L92.1321 27.0426C92.365 27.1051 92.5724 27.1321 92.7542 27.1236C92.9361 27.115 93.0966 27.0469 93.2358 26.919C93.3778 26.7912 93.5028 26.5824 93.6108 26.2926L93.7684 25.8579L91.3736 19.2273H92.7372L94.3949 24.3068H94.4631L96.1207 19.2273H97.4886L94.7912 26.6463C94.6662 26.9872 94.5071 27.2755 94.3139 27.5113C94.1207 27.75 93.8906 27.929 93.6236 28.0483C93.3565 28.1676 93.0469 28.2273 92.6946 28.2273ZM98.6861 28.2273V19.2273H99.9304V20.2883H100.037C100.111 20.152 100.217 19.9943 100.357 19.8153C100.496 19.6363 100.689 19.4801 100.936 19.3466C101.183 19.2102 101.51 19.142 101.916 19.142C102.445 19.142 102.916 19.2755 103.331 19.5426C103.746 19.8096 104.071 20.1946 104.307 20.6974C104.545 21.2003 104.665 21.8054 104.665 22.5128C104.665 23.2201 104.547 23.8267 104.311 24.3324C104.075 24.8352 103.751 25.223 103.339 25.4957C102.928 25.7656 102.457 25.9005 101.929 25.9005C101.531 25.9005 101.206 25.8338 100.953 25.7003C100.703 25.5667 100.507 25.4105 100.365 25.2315C100.223 25.0525 100.114 24.8934 100.037 24.7542H99.9602V28.2273H98.6861ZM99.9346 22.5C99.9346 22.9602 100.001 23.3636 100.135 23.7102C100.268 24.0568 100.462 24.3281 100.714 24.5241C100.967 24.7173 101.277 24.8139 101.643 24.8139C102.024 24.8139 102.342 24.713 102.598 24.5113C102.854 24.3068 103.047 24.0298 103.178 23.6804C103.311 23.3309 103.378 22.9375 103.378 22.5C103.378 22.0682 103.312 21.6804 103.182 21.3366C103.054 20.9929 102.861 20.7216 102.602 20.5227C102.347 20.3238 102.027 20.2244 101.643 20.2244C101.274 20.2244 100.962 20.3196 100.706 20.5099C100.453 20.7003 100.261 20.9659 100.131 21.3068C100 21.6477 99.9346 22.0454 99.9346 22.5ZM108.913 25.9048C108.268 25.9048 107.713 25.767 107.247 25.4915C106.784 25.213 106.426 24.8224 106.173 24.3196C105.923 23.8139 105.798 23.2216 105.798 22.5426C105.798 21.8721 105.923 21.2812 106.173 20.7699C106.426 20.2585 106.778 19.8594 107.23 19.5724C107.685 19.2855 108.216 19.142 108.824 19.142C109.193 19.142 109.551 19.2031 109.898 19.3253C110.244 19.4474 110.555 19.6392 110.831 19.9005C111.107 20.1619 111.324 20.5014 111.483 20.919C111.642 21.3338 111.722 21.838 111.722 22.4318V22.8835H106.518V21.929H110.473C110.473 21.5937 110.405 21.2969 110.268 21.0383C110.132 20.777 109.94 20.571 109.693 20.4204C109.449 20.2699 109.162 20.1946 108.832 20.1946C108.474 20.1946 108.162 20.2826 107.895 20.4588C107.631 20.6321 107.426 20.8594 107.281 21.1406C107.139 21.419 107.068 21.7216 107.068 22.0483V22.794C107.068 23.2315 107.145 23.6037 107.298 23.9105C107.455 24.2173 107.672 24.4517 107.95 24.6136C108.229 24.7727 108.554 24.8523 108.926 24.8523C109.168 24.8523 109.388 24.8182 109.587 24.75C109.785 24.679 109.957 24.5738 110.102 24.4346C110.247 24.2954 110.358 24.1236 110.435 23.919L111.641 24.1363C111.544 24.4915 111.371 24.8025 111.121 25.0696C110.874 25.3338 110.562 25.5398 110.187 25.6875C109.815 25.8324 109.391 25.9048 108.913 25.9048Z" fill="#040404"/>
<defs>
<filter id="filter0_d_977_59" x="0.00039053" y="2.43187e-05" width="170.407" height="116.926" filterUnits="userSpaceOnUse" color-interpolation-filters="sRGB">
<feFlood flood-opacity="0" result="BackgroundImageFix"/>
<feColorMatrix in="SourceAlpha" type="matrix" values="0 0 0 0 0 0 0 0 0 0 0 0 0 0 0 0 0 0 127 0" result="hardAlpha"/>
<feMorphology radius="2" operator="dilate" in="SourceAlpha" result="effect1_dropShadow_977_59"/>
<feOffset dy="3"/>
<feGaussianBlur stdDeviation="3.95"/>
<feComposite in2="hardAlpha" operator="out"/>
<feColorMatrix type="matrix" values="0 0 0 0 0 0 0 0 0 0 0 0 0 0 0 0 0 0 0.1 0"/>
<feBlend mode="normal" in2="BackgroundImageFix" result="effect1_dropShadow_977_59"/>
<feBlend mode="normal" in="SourceGraphic" in2="effect1_dropShadow_977_59" result="shape"/>
</filter>
</defs>
</svg>
