<svg width="171" height="117" viewBox="0 0 171 117" fill="none" xmlns="http://www.w3.org/2000/svg">
<g filter="url(#filter0_d_977_89)">
<rect x="9.90039" y="6.90002" width="150.607" height="97.1257" rx="10" fill="white"/>
</g>
<rect x="88.8418" y="50.7615" width="50.9269" height="3.50377" fill="#D3D7DF"/>
<rect x="88.8418" y="58.342" width="50.9269" height="3.50377" fill="#D3D7DF"/>
<rect x="88.8418" y="65.9231" width="50.9269" height="3.50377" fill="#D3D7DF"/>
<rect x="88.8418" y="73.5042" width="50.9269" height="3.50377" fill="#D3D7DF"/>
<rect x="27.6484" y="50.7615" width="50.9269" height="3.50377" fill="#D3D7DF"/>
<rect x="27.6484" y="58.342" width="50.9269" height="3.50377" fill="#D3D7DF"/>
<rect x="27.6484" y="65.9231" width="50.9269" height="3.50377" fill="#D3D7DF"/>
<rect x="27.6484" y="73.5042" width="50.9269" height="3.50377" fill="#D3D7DF"/>
<path d="M54.4536 18.179V17.0454H61.2079V18.179H58.4849V25.7727H57.1724V18.179H54.4536ZM64.47 25.9048C63.8251 25.9048 63.2697 25.767 62.8038 25.4915C62.3407 25.213 61.9828 24.8224 61.7299 24.3196C61.4799 23.8139 61.3549 23.2216 61.3549 22.5426C61.3549 21.8721 61.4799 21.2812 61.7299 20.7699C61.9828 20.2585 62.335 19.8594 62.7867 19.5724C63.2413 19.2855 63.7725 19.142 64.3805 19.142C64.7498 19.142 65.1078 19.2031 65.4544 19.3253C65.8009 19.4474 66.112 19.6392 66.3876 19.9005C66.6632 20.1619 66.8805 20.5014 67.0396 20.919C67.1987 21.3338 67.2782 21.838 67.2782 22.4318V22.8835H62.0751V21.929H66.0296C66.0296 21.5937 65.9615 21.2969 65.8251 21.0383C65.6887 20.777 65.497 20.571 65.2498 20.4204C65.0055 20.2699 64.7186 20.1946 64.389 20.1946C64.0311 20.1946 63.7186 20.2826 63.4515 20.4588C63.1873 20.6321 62.9828 20.8594 62.8379 21.1406C62.6958 21.419 62.6248 21.7216 62.6248 22.0483V22.794C62.6248 23.2315 62.7015 23.6037 62.8549 23.9105C63.0112 24.2173 63.2285 24.4517 63.5069 24.6136C63.7853 24.7727 64.1106 24.8523 64.4828 24.8523C64.7242 24.8523 64.9444 24.8182 65.1433 24.75C65.3421 24.679 65.514 24.5738 65.6589 24.4346C65.8038 24.2954 65.9146 24.1236 65.9913 23.919L67.1972 24.1363C67.1007 24.4915 66.9274 24.8025 66.6774 25.0696C66.4302 25.3338 66.1191 25.5398 65.7441 25.6875C65.372 25.8324 64.9472 25.9048 64.47 25.9048ZM69.5453 19.2273L70.9899 21.7755L72.4472 19.2273H73.8407L71.7995 22.5L73.8578 25.7727H72.4643L70.9899 23.3267L69.5197 25.7727H68.122L70.1589 22.5L68.1475 19.2273H69.5453ZM78.2044 19.2273V20.25H74.6291V19.2273H78.2044ZM75.5879 17.6591H76.862V23.8508C76.862 24.098 76.899 24.2841 76.9728 24.4091C77.0467 24.5312 77.1419 24.615 77.2583 24.6605C77.3776 24.7031 77.5069 24.7244 77.6461 24.7244C77.7484 24.7244 77.8379 24.7173 77.9146 24.7031C77.9913 24.6889 78.0509 24.6775 78.0936 24.669L78.3237 25.7216C78.2498 25.75 78.1447 25.7784 78.0083 25.8068C77.872 25.838 77.7015 25.8551 77.497 25.8579C77.1617 25.8636 76.8492 25.804 76.5595 25.679C76.2697 25.554 76.0353 25.3608 75.8563 25.0994C75.6774 24.838 75.5879 24.5099 75.5879 24.115V17.6591ZM82.8919 25.7727V17.0454H86.0879C86.7072 17.0454 87.22 17.1477 87.6262 17.3523C88.0325 17.554 88.3365 17.8281 88.5382 18.1747C88.7399 18.5184 88.8407 18.9062 88.8407 19.338C88.8407 19.7017 88.774 20.0085 88.6404 20.2585C88.5069 20.5057 88.3279 20.7045 88.1035 20.8551C87.8819 21.0028 87.6376 21.1108 87.3705 21.179V21.2642C87.6603 21.2784 87.943 21.3721 88.2186 21.5454C88.497 21.7159 88.7271 21.9588 88.9089 22.2741C89.0907 22.5895 89.1816 22.973 89.1816 23.4247C89.1816 23.8707 89.0765 24.2713 88.8663 24.6264C88.6589 24.9787 88.3379 25.2585 87.9032 25.4659C87.4686 25.6704 86.9132 25.7727 86.237 25.7727H82.8919ZM84.2086 24.6434H86.1092C86.7399 24.6434 87.1916 24.5213 87.4643 24.277C87.737 24.0326 87.8734 23.7273 87.8734 23.3608C87.8734 23.0852 87.8038 22.8324 87.6646 22.6023C87.5254 22.3721 87.3265 22.1889 87.068 22.0525C86.8123 21.9162 86.5083 21.848 86.1561 21.848H84.2086V24.6434ZM84.2086 20.821H85.9728C86.2683 20.821 86.5339 20.7642 86.7697 20.6505C87.0083 20.5369 87.1972 20.3778 87.3365 20.1733C87.4785 19.9659 87.5495 19.7216 87.5495 19.4403C87.5495 19.0795 87.4231 18.777 87.1703 18.5326C86.9174 18.2883 86.5296 18.1662 86.0069 18.1662H84.2086V20.821ZM91.9153 17.0454V25.7727H90.6411V17.0454H91.9153ZM96.3865 25.9048C95.7729 25.9048 95.2374 25.7642 94.78 25.4829C94.3226 25.2017 93.9675 24.8082 93.7146 24.3025C93.4618 23.7969 93.3354 23.2059 93.3354 22.5298C93.3354 21.8508 93.4618 21.2571 93.7146 20.7486C93.9675 20.24 94.3226 19.8451 94.78 19.5639C95.2374 19.2826 95.7729 19.142 96.3865 19.142C97.0002 19.142 97.5357 19.2826 97.9931 19.5639C98.4504 19.8451 98.8056 20.24 99.0584 20.7486C99.3112 21.2571 99.4377 21.8508 99.4377 22.5298C99.4377 23.2059 99.3112 23.7969 99.0584 24.3025C98.8056 24.8082 98.4504 25.2017 97.9931 25.4829C97.5357 25.7642 97.0002 25.9048 96.3865 25.9048ZM96.3908 24.8352C96.7885 24.8352 97.1181 24.7301 97.3794 24.5199C97.6408 24.3096 97.834 24.0298 97.959 23.6804C98.0868 23.3309 98.1507 22.946 98.1507 22.5255C98.1507 22.1079 98.0868 21.7244 97.959 21.375C97.834 21.0227 97.6408 20.74 97.3794 20.527C97.1181 20.3139 96.7885 20.2074 96.3908 20.2074C95.9902 20.2074 95.6578 20.3139 95.3936 20.527C95.1323 20.74 94.9377 21.0227 94.8098 21.375C94.6848 21.7244 94.6223 22.1079 94.6223 22.5255C94.6223 22.946 94.6848 23.3309 94.8098 23.6804C94.9377 24.0298 95.1323 24.3096 95.3936 24.5199C95.6578 24.7301 95.9902 24.8352 96.3908 24.8352ZM103.617 25.9048C102.983 25.9048 102.438 25.7613 101.981 25.4744C101.526 25.1846 101.177 24.7855 100.932 24.277C100.688 23.7684 100.566 23.1861 100.566 22.5298C100.566 21.865 100.691 21.2784 100.941 20.7699C101.191 20.2585 101.543 19.8594 101.998 19.5724C102.452 19.2855 102.988 19.142 103.604 19.142C104.101 19.142 104.545 19.2344 104.934 19.419C105.323 19.6008 105.637 19.8565 105.876 20.1861C106.117 20.5156 106.26 20.9005 106.306 21.3409H105.066C104.998 21.0341 104.841 20.7699 104.597 20.5483C104.356 20.3267 104.032 20.2159 103.626 20.2159C103.27 20.2159 102.959 20.3096 102.692 20.4971C102.428 20.6818 102.222 20.946 102.074 21.2898C101.927 21.6307 101.853 22.0341 101.853 22.5C101.853 22.9773 101.925 23.3892 102.07 23.7358C102.215 24.0824 102.42 24.3508 102.684 24.5412C102.951 24.7315 103.265 24.8267 103.626 24.8267C103.867 24.8267 104.086 24.7826 104.282 24.6946C104.481 24.6037 104.647 24.4744 104.78 24.3068C104.917 24.1392 105.012 23.9375 105.066 23.7017H106.306C106.26 24.125 106.123 24.5028 105.893 24.8352C105.662 25.1676 105.354 25.429 104.968 25.6193C104.584 25.8096 104.134 25.9048 103.617 25.9048ZM108.84 23.5525L108.832 21.9971H109.053L111.661 19.2273H113.187L110.213 22.3807H110.012L108.84 23.5525ZM107.668 25.7727V17.0454H108.943V25.7727H107.668ZM111.802 25.7727L109.458 22.6619L110.336 21.7713L113.366 25.7727H111.802Z" fill="#040404"/>
<defs>
<filter id="filter0_d_977_89" x="0.00039053" y="2.43187e-05" width="170.407" height="116.926" filterUnits="userSpaceOnUse" color-interpolation-filters="sRGB">
<feFlood flood-opacity="0" result="BackgroundImageFix"/>
<feColorMatrix in="SourceAlpha" type="matrix" values="0 0 0 0 0 0 0 0 0 0 0 0 0 0 0 0 0 0 127 0" result="hardAlpha"/>
<feMorphology radius="2" operator="dilate" in="SourceAlpha" result="effect1_dropShadow_977_89"/>
<feOffset dy="3"/>
<feGaussianBlur stdDeviation="3.95"/>
<feComposite in2="hardAlpha" operator="out"/>
<feColorMatrix type="matrix" values="0 0 0 0 0 0 0 0 0 0 0 0 0 0 0 0 0 0 0.1 0"/>
<feBlend mode="normal" in2="BackgroundImageFix" result="effect1_dropShadow_977_89"/>
<feBlend mode="normal" in="SourceGraphic" in2="effect1_dropShadow_977_89" result="shape"/>
</filter>
</defs>
</svg>
