<svg width="171" height="117" viewBox="0 0 171 117" fill="none" xmlns="http://www.w3.org/2000/svg">
<g filter="url(#filter0_d_977_29)">
<rect x="9.90039" y="6.90002" width="150.607" height="97.1257" rx="10" fill="white"/>
</g>
<rect x="21.4346" y="51.8708" width="96.6572" height="5.50525" fill="#D3D7DF"/>
<rect x="21.4346" y="60.7828" width="55.6855" height="5.50525" fill="#D3D7DF"/>
<path d="M71.5161 18.179V17.0454H78.2704V18.179H75.5474V25.7727H74.2349V18.179H71.5161ZM79.6607 25.7727V19.2273H80.9348V25.7727H79.6607ZM80.3041 18.2173C80.0825 18.2173 79.8922 18.1434 79.7331 17.9957C79.5769 17.8451 79.4987 17.6662 79.4987 17.4588C79.4987 17.2486 79.5769 17.0696 79.7331 16.9219C79.8922 16.7713 80.0825 16.696 80.3041 16.696C80.5257 16.696 80.7146 16.7713 80.8709 16.9219C81.03 17.0696 81.1095 17.2486 81.1095 17.4588C81.1095 17.6662 81.03 17.8451 80.8709 17.9957C80.7146 18.1434 80.5257 18.2173 80.3041 18.2173ZM85.7044 19.2273V20.25H82.1291V19.2273H85.7044ZM83.0879 17.6591H84.362V23.8508C84.362 24.098 84.399 24.2841 84.4728 24.4091C84.5467 24.5312 84.6419 24.615 84.7583 24.6605C84.8776 24.7031 85.0069 24.7244 85.1461 24.7244C85.2484 24.7244 85.3379 24.7173 85.4146 24.7031C85.4913 24.6889 85.5509 24.6775 85.5936 24.669L85.8237 25.7216C85.7498 25.75 85.6447 25.7784 85.5083 25.8068C85.372 25.838 85.2015 25.8551 84.997 25.8579C84.6617 25.8636 84.3492 25.804 84.0595 25.679C83.7697 25.554 83.5353 25.3608 83.3563 25.0994C83.1774 24.838 83.0879 24.5099 83.0879 24.115V17.6591ZM88.5286 17.0454V25.7727H87.2544V17.0454H88.5286ZM93.0637 25.9048C92.4188 25.9048 91.8634 25.767 91.3975 25.4915C90.9345 25.213 90.5765 24.8224 90.3237 24.3196C90.0737 23.8139 89.9487 23.2216 89.9487 22.5426C89.9487 21.8721 90.0737 21.2812 90.3237 20.7699C90.5765 20.2585 90.9288 19.8594 91.3805 19.5724C91.835 19.2855 92.3663 19.142 92.9742 19.142C93.3436 19.142 93.7015 19.2031 94.0481 19.3253C94.3947 19.4474 94.7058 19.6392 94.9813 19.9005C95.2569 20.1619 95.4742 20.5014 95.6333 20.919C95.7924 21.3338 95.872 21.838 95.872 22.4318V22.8835H90.6688V21.929H94.6234C94.6234 21.5937 94.5552 21.2969 94.4188 21.0383C94.2825 20.777 94.0907 20.571 93.8436 20.4204C93.5992 20.2699 93.3123 20.1946 92.9828 20.1946C92.6248 20.1946 92.3123 20.2826 92.0453 20.4588C91.7811 20.6321 91.5765 20.8594 91.4316 21.1406C91.2896 21.419 91.2186 21.7216 91.2186 22.0483V22.794C91.2186 23.2315 91.2953 23.6037 91.4487 23.9105C91.6049 24.2173 91.8222 24.4517 92.1007 24.6136C92.3791 24.7727 92.7044 24.8523 93.0765 24.8523C93.318 24.8523 93.5382 24.8182 93.737 24.75C93.9359 24.679 94.1078 24.5738 94.2526 24.4346C94.3975 24.2954 94.5083 24.1236 94.585 23.919L95.791 24.1363C95.6944 24.4915 95.5211 24.8025 95.2711 25.0696C95.024 25.3338 94.7129 25.5398 94.3379 25.6875C93.9657 25.8324 93.541 25.9048 93.0637 25.9048Z" fill="#040404"/>
<defs>
<filter id="filter0_d_977_29" x="0.00039053" y="2.43187e-05" width="170.407" height="116.926" filterUnits="userSpaceOnUse" color-interpolation-filters="sRGB">
<feFlood flood-opacity="0" result="BackgroundImageFix"/>
<feColorMatrix in="SourceAlpha" type="matrix" values="0 0 0 0 0 0 0 0 0 0 0 0 0 0 0 0 0 0 127 0" result="hardAlpha"/>
<feMorphology radius="2" operator="dilate" in="SourceAlpha" result="effect1_dropShadow_977_29"/>
<feOffset dy="3"/>
<feGaussianBlur stdDeviation="3.95"/>
<feComposite in2="hardAlpha" operator="out"/>
<feColorMatrix type="matrix" values="0 0 0 0 0 0 0 0 0 0 0 0 0 0 0 0 0 0 0.1 0"/>
<feBlend mode="normal" in2="BackgroundImageFix" result="effect1_dropShadow_977_29"/>
<feBlend mode="normal" in="SourceGraphic" in2="effect1_dropShadow_977_29" result="shape"/>
</filter>
</defs>
</svg>
